<svg xmlns="http://www.w3.org/2000/svg" width="24" height="24" viewBox="0 0 24 24">
  <g id="Search_results_for_Add_-_Flaticon-2" data-name="Search results for Add - Flaticon-2" transform="translate(0 0)">
    <path id="Path_3379" data-name="Path 3379" d="M11.062,16.217V12.936H7.781a.937.937,0,1,1,0-1.875h3.281V7.78a.937.937,0,0,1,1.875,0v3.281h3.281a.937.937,0,1,1,0,1.875H12.937v3.281a.937.937,0,0,1-1.875,0Zm9.423-12.7A12,12,0,0,0,3.514,20.485,12,12,0,0,0,18.209,22.27a.937.937,0,1,0-.971-1.6,10.214,10.214,0,1,1,3.17-3.047.938.938,0,1,0,1.559,1.042A11.971,11.971,0,0,0,20.485,3.514Zm0,0" transform="translate(0 0)" fill="#4807e6"/>
  </g>
</svg>
