<svg xmlns="http://www.w3.org/2000/svg" width="59" height="57" viewBox="0 0 59 57">
  <g id="Group_10213" data-name="Group 10213" transform="translate(-632 -465)">
    <ellipse id="Ellipse_18" data-name="Ellipse 18" cx="29.5" cy="28.5" rx="29.5" ry="28.5" transform="translate(632 465)" fill="transparent"/>
    <g id="Multiple_users_silhouette_-_Free_people_icons-2" data-name="Multiple users silhouette - Free people icons-2" transform="translate(644 473.652)">
      <g id="Group_10196" data-name="Group 10196" transform="translate(0 6.348)">
        <path id="Path_3237" data-name="Path 3237" d="M20.748,11.314a6.247,6.247,0,0,1,2.907,4.641,5.04,5.04,0,1,0-2.907-4.641Zm-3.3,10.324A5.042,5.042,0,1,0,12.4,16.6,5.042,5.042,0,0,0,17.444,21.638Zm2.139.344H15.3a6.464,6.464,0,0,0-6.456,6.457v5.233l.013.082.36.113A29.388,29.388,0,0,0,18,35.282a18.022,18.022,0,0,0,7.665-1.439l.337-.17h.036V28.439A6.462,6.462,0,0,0,19.583,21.982Zm8.342-5.206H23.68a6.214,6.214,0,0,1-1.918,4.328,7.672,7.672,0,0,1,5.48,7.341v1.612a17.374,17.374,0,0,0,6.767-1.422l.337-.171h.036V23.232A6.463,6.463,0,0,0,27.926,16.777ZM8.6,16.433a5.009,5.009,0,0,0,2.682-.778,6.24,6.24,0,0,1,2.346-3.98c.005-.094.014-.188.014-.283A5.042,5.042,0,1,0,8.6,16.433Zm4.528,4.672a6.218,6.218,0,0,1-1.917-4.3c-.157-.012-.313-.024-.474-.024H6.456A6.463,6.463,0,0,0,0,23.232v5.233l.013.081.36.114a30.271,30.271,0,0,0,7.271,1.367v-1.58A7.673,7.673,0,0,1,13.125,21.105Z" transform="translate(0 -6.348)" fill="#4807e6"/>
      </g>
    </g>
  </g>
</svg>
