<svg xmlns="http://www.w3.org/2000/svg" width="104.797" height="104.797" viewBox="0 0 104.797 104.797">
  <g id="center" transform="translate(-906.686 -68)">
    <g id="Group_10149" data-name="Group 10149" transform="translate(906.686 68)">
      <g id="Group_1" data-name="Group 1" transform="translate(0)">
        <path id="Path_1" data-name="Path 1" d="M331.641,423.046A24.055,24.055,0,1,0,355.7,447.1,24.055,24.055,0,0,0,331.641,423.046Zm0,35.17A11.115,11.115,0,1,1,342.756,447.1,11.115,11.115,0,0,1,331.641,458.216Z" transform="translate(-279.242 -394.702)" fill="#4807e6"/>
        <circle id="Ellipse_1" data-name="Ellipse 1" cx="11.115" cy="11.115" r="11.115" transform="translate(41.284)" fill="#4807e6"/>
        <circle id="Ellipse_2" data-name="Ellipse 2" cx="11.115" cy="11.115" r="11.115" transform="translate(70.476 12.092)" fill="#4807e6"/>
        <circle id="Ellipse_3" data-name="Ellipse 3" cx="11.115" cy="11.115" r="11.115" transform="translate(82.567 41.284)" fill="#4807e6"/>
        <circle id="Ellipse_4" data-name="Ellipse 4" cx="11.115" cy="11.115" r="11.115" transform="translate(70.476 70.476)" fill="#4807e6"/>
        <circle id="Ellipse_5" data-name="Ellipse 5" cx="11.115" cy="11.115" r="11.115" transform="translate(41.284 82.567)" fill="#4807e6"/>
        <circle id="Ellipse_6" data-name="Ellipse 6" cx="11.115" cy="11.115" r="11.115" transform="translate(12.092 70.476)" fill="#4807e6"/>
        <circle id="Ellipse_7" data-name="Ellipse 7" cx="11.115" cy="11.115" r="11.115" transform="translate(0 41.284)" fill="#4807e6"/>
        <circle id="Ellipse_8" data-name="Ellipse 8" cx="11.115" cy="11.115" r="11.115" transform="translate(12.092 12.092)" fill="#4807e6"/>
      </g>
    </g>
    <path id="Path_3315" data-name="Path 3315" d="M22,0A22,22,0,1,1,0,22,22,22,0,0,1,22,0Z" transform="translate(937 98.314)" fill="#4807e6"/>
    <g id="Search_results_for_Education_center_-_Flaticon-2" data-name="Search results for Education center - Flaticon-2" transform="translate(945.405 106.719)">
      <path id="Union_13" data-name="Union 13" d="M23.873,19.172a4.187,4.187,0,0,0,.079-.8,3.972,3.972,0,0,0-7.17-2.366,3.95,3.95,0,0,0-6.372,0,3.973,3.973,0,0,0-7.171,2.366,3.893,3.893,0,0,0,.084.8H.8a.8.8,0,1,1,0-1.591h.795V3.186H.8a.8.8,0,1,1,0-1.591h12V.8A.8.8,0,1,1,14.4.8v.8h12a.8.8,0,1,1,0,1.591h-.8V17.58h.8a.8.8,0,1,1,0,1.591Z" transform="translate(-0.001 -0.001)" fill="#fff"/>
      <path id="Path_3272" data-name="Path 3272" d="M95.78,303.39a2.39,2.39,0,1,0-2.39,2.39A2.393,2.393,0,0,0,95.78,303.39Zm0,0" transform="translate(-86.167 -285.015)" fill="#fff"/>
      <path id="Path_3273" data-name="Path 3273" d="M215.78,303.39a2.39,2.39,0,1,0-2.39,2.39A2.393,2.393,0,0,0,215.78,303.39Zm0,0" transform="translate(-199.795 -285.015)" fill="#fff"/>
      <path id="Path_3274" data-name="Path 3274" d="M181,394.983v1.646a.8.8,0,0,0,.8.8h6.373a.8.8,0,0,0,.8-.8v-1.646a3.983,3.983,0,1,0-7.966,0Zm0,0" transform="translate(-171.388 -370.235)" fill="#fff"/>
      <path id="Path_3275" data-name="Path 3275" d="M335.78,303.39a2.39,2.39,0,1,0-2.39,2.39A2.393,2.393,0,0,0,335.78,303.39Zm0,0" transform="translate(-313.422 -285.015)" fill="#fff"/>
      <path id="Path_3276" data-name="Path 3276" d="M339.477,394.983v1.646a2.364,2.364,0,0,1-.147.8h4.13a.8.8,0,0,0,.8-.8v-1.646A3.988,3.988,0,0,0,340.273,391a3.938,3.938,0,0,0-2,.561A5.519,5.519,0,0,1,339.477,394.983Zm0,0" transform="translate(-320.305 -370.235)" fill="#fff"/>
      <path id="Path_3277" data-name="Path 3277" d="M61,394.983v1.646a.8.8,0,0,0,.8.8h4.13a2.364,2.364,0,0,1-.147-.8v-1.646a5.519,5.519,0,0,1,1.207-3.422,3.937,3.937,0,0,0-2-.561A3.988,3.988,0,0,0,61,394.983Zm0,0" transform="translate(-57.761 -370.235)" fill="#fff"/>
    </g>
  </g>
</svg>
