<svg xmlns="http://www.w3.org/2000/svg" width="104.797" height="104.797" viewBox="0 0 104.797 104.797">
  <g id="center" transform="translate(-906.686 -68)">
    <g id="Group_10149" data-name="Group 10149" transform="translate(906.686 68)">
      <g id="Group_1" data-name="Group 1" transform="translate(0)">
        <path id="Path_1" data-name="Path 1" d="M331.641,423.046A24.055,24.055,0,1,0,355.7,447.1,24.055,24.055,0,0,0,331.641,423.046Zm0,35.17A11.115,11.115,0,1,1,342.756,447.1,11.115,11.115,0,0,1,331.641,458.216Z" transform="translate(-279.242 -394.702)" fill="#4807e6"/>
        <circle id="Ellipse_1" data-name="Ellipse 1" cx="11.115" cy="11.115" r="11.115" transform="translate(41.284)" fill="#4807e6"/>
        <circle id="Ellipse_2" data-name="Ellipse 2" cx="11.115" cy="11.115" r="11.115" transform="translate(70.476 12.092)" fill="#4807e6"/>
        <circle id="Ellipse_3" data-name="Ellipse 3" cx="11.115" cy="11.115" r="11.115" transform="translate(82.567 41.284)" fill="#4807e6"/>
        <circle id="Ellipse_4" data-name="Ellipse 4" cx="11.115" cy="11.115" r="11.115" transform="translate(70.476 70.476)" fill="#4807e6"/>
        <circle id="Ellipse_5" data-name="Ellipse 5" cx="11.115" cy="11.115" r="11.115" transform="translate(41.284 82.567)" fill="#4807e6"/>
        <circle id="Ellipse_6" data-name="Ellipse 6" cx="11.115" cy="11.115" r="11.115" transform="translate(12.092 70.476)" fill="#4807e6"/>
        <circle id="Ellipse_7" data-name="Ellipse 7" cx="11.115" cy="11.115" r="11.115" transform="translate(0 41.284)" fill="#4807e6"/>
        <circle id="Ellipse_8" data-name="Ellipse 8" cx="11.115" cy="11.115" r="11.115" transform="translate(12.092 12.092)" fill="#4807e6"/>
      </g>
    </g>
    <path id="Path_3315" data-name="Path 3315" d="M22,0A22,22,0,1,1,0,22,22,22,0,0,1,22,0Z" transform="translate(937 98.314)" fill="#4807e6"/>
    <g id="Multiple_users_silhouette_-_Free_people_icons-2" data-name="Multiple users silhouette - Free people icons-2" transform="translate(942.983 100.5)">
      <g id="Group_10196" data-name="Group 10196" transform="translate(0 6.348)">
        <path id="Path_3237" data-name="Path 3237" d="M19.434,11a5.852,5.852,0,0,1,2.723,4.347A4.721,4.721,0,1,0,19.434,11Zm-3.094,9.67a4.723,4.723,0,1,0-4.724-4.723A4.723,4.723,0,0,0,16.339,20.67Zm2,.322H14.335a6.054,6.054,0,0,0-6.047,6.048v4.9l.012.077.338.106a27.527,27.527,0,0,0,8.222,1.326A16.88,16.88,0,0,0,24.04,32.1l.315-.16h.034v-4.9A6.053,6.053,0,0,0,18.343,20.992Zm7.814-4.876H22.18a5.821,5.821,0,0,1-1.8,4.054,7.186,7.186,0,0,1,5.133,6.876v1.51a16.274,16.274,0,0,0,6.338-1.331l.315-.16H32.2v-4.9A6.054,6.054,0,0,0,26.157,16.116Zm-18.1-.322a4.692,4.692,0,0,0,2.512-.729,5.845,5.845,0,0,1,2.2-3.728c0-.088.013-.176.013-.265a4.723,4.723,0,1,0-4.722,4.722Zm4.242,4.376a5.824,5.824,0,0,1-1.8-4.032c-.147-.011-.293-.023-.444-.023H6.047A6.054,6.054,0,0,0,0,22.163v4.9l.012.076.338.107a28.353,28.353,0,0,0,6.81,1.28v-1.48A7.187,7.187,0,0,1,12.293,20.17Z" transform="translate(0 -6.348)" fill="#fff"/>
      </g>
    </g>
  </g>
</svg>
