<svg xmlns="http://www.w3.org/2000/svg" width="59" height="57" viewBox="0 0 59 57">
  <g id="Group_10213" data-name="Group 10213" transform="translate(-632 -465)">
    <ellipse id="Ellipse_18" data-name="Ellipse 18" cx="29.5" cy="28.5" rx="29.5" ry="28.5" transform="translate(632 465)" fill="transparent"/>
    <g id="Search_results_for_Education_center_-_Flaticon-2" data-name="Search results for Education center - Flaticon-2" transform="translate(646 478)">
      <path id="Union_13" data-name="Union 13" d="M13161.663,894.413a4.674,4.674,0,0,0,.089-.889,41.355,41.355,0,0,1-11.567-4.447,4.412,4.412,0,0,1-7.117,0,4.453,4.453,0,0,0-4.45,4.447,4.378,4.378,0,0,0,.093.889h-2.818a.889.889,0,1,1,0-1.778h.889V876.557h-.889a.889.889,0,1,1,0-1.778h13.4v-.889a.891.891,0,1,1,1.781,0v.889h13.4a.889.889,0,0,1,0,1.778h-.893v16.078h.893a.889.889,0,0,1,0,1.778Z" transform="translate(-13135 -873)" fill="#4807e6"/>
      <path id="Path_3272" data-name="Path 3272" d="M96.339,303.669a2.669,2.669,0,1,0-2.669,2.669A2.672,2.672,0,0,0,96.339,303.669Zm0,0" transform="translate(-85.602 -283.145)" fill="#4807e6"/>
      <path id="Path_3273" data-name="Path 3273" d="M216.339,303.669a2.669,2.669,0,1,0-2.669,2.669A2.672,2.672,0,0,0,216.339,303.669Zm0,0" transform="translate(-198.484 -283.145)" fill="#4807e6"/>
      <path id="Path_3274" data-name="Path 3274" d="M181,395.449v1.839a.889.889,0,0,0,.89.89h7.118a.889.889,0,0,0,.89-.89v-1.839a4.449,4.449,0,0,0-8.9,0Zm0,0" transform="translate(-170.264 -367.807)" fill="#4807e6"/>
      <path id="Path_3275" data-name="Path 3275" d="M336.339,303.669a2.669,2.669,0,1,0-2.669,2.669A2.672,2.672,0,0,0,336.339,303.669Zm0,0" transform="translate(-311.366 -283.145)" fill="#4807e6"/>
      <path id="Path_3276" data-name="Path 3276" d="M339.618,395.449v1.839a2.64,2.64,0,0,1-.164.89h4.613a.889.889,0,0,0,.89-.89v-1.839A4.454,4.454,0,0,0,340.508,391a4.4,4.4,0,0,0-2.238.626A6.165,6.165,0,0,1,339.618,395.449Zm0,0" transform="translate(-318.204 -367.807)" fill="#4807e6"/>
      <path id="Path_3277" data-name="Path 3277" d="M61,395.449v1.839a.889.889,0,0,0,.89.89H66.5a2.64,2.64,0,0,1-.164-.89v-1.839a6.165,6.165,0,0,1,1.348-3.822A4.4,4.4,0,0,0,65.449,391,4.454,4.454,0,0,0,61,395.449Zm0,0" transform="translate(-57.382 -367.807)" fill="#4807e6"/>
    </g>
  </g>
</svg>
