<svg xmlns="http://www.w3.org/2000/svg" width="28" height="28" viewBox="0 0 28 28">
  <g id="Chat_-_Free_multimedia_icons-2" data-name="Chat - Free multimedia icons-2" transform="translate(0)">
    <g id="Group_16238" data-name="Group 16238" transform="translate(0 0)">
      <g id="Group_16237" data-name="Group 16237" transform="translate(0)">
        <g id="Group_16236" data-name="Group 16236">
          <path id="Path_4183" data-name="Path 4183" d="M25.623,16.766a1.094,1.094,0,0,0-2.028.82l1.288,3.186-3.826-1.687a1.094,1.094,0,0,0-.87-.005,10.546,10.546,0,0,1-4.163.841c-5.856,0-9.789-4.585-9.789-8.867,0-4.889,4.391-8.867,9.789-8.867s9.789,3.978,9.789,8.867a8.919,8.919,0,0,1-.1,1.253,1.094,1.094,0,1,0,2.164.323A11.037,11.037,0,0,0,28,11.054,10.571,10.571,0,0,0,24.457,3.2,12.43,12.43,0,0,0,16.024,0,12.43,12.43,0,0,0,7.59,3.2a10.63,10.63,0,0,0-3.5,6.909A8.842,8.842,0,0,0,0,17.474a8.486,8.486,0,0,0,1.677,5.07L.08,26.5a1.094,1.094,0,0,0,1.455,1.411l4.606-2.031a10.409,10.409,0,0,0,3.648.65c.027,0,.054,0,.081,0a10.352,10.352,0,0,0,5.146-1.395,9.415,9.415,0,0,0,3.309-3.222,12.586,12.586,0,0,0,2.272-.632l5.868,2.587a1.094,1.094,0,0,0,1.455-1.411ZM9.789,24.336l-.044,0a8.2,8.2,0,0,1-3.2-.654,1.093,1.093,0,0,0-.87.005L3.118,24.819l.826-2.044a1.094,1.094,0,0,0-.182-1.119,6.384,6.384,0,0,1-1.574-4.182,6.507,6.507,0,0,1,2.022-4.66,11.041,11.041,0,0,0,3.235,5.913A12.226,12.226,0,0,0,15.4,22.094,8.038,8.038,0,0,1,9.789,24.336Z" transform="translate(0 0)" fill="#121212"/>
          <ellipse id="Ellipse_240" data-name="Ellipse 240" cx="1.053" cy="1.264" rx="1.053" ry="1.264" transform="translate(14.796 9.86)" fill="#121212"/>
          <ellipse id="Ellipse_241" data-name="Ellipse 241" cx="1.053" cy="1.264" rx="1.053" ry="1.264" transform="translate(19.317 9.86)" fill="#121212"/>
          <ellipse id="Ellipse_242" data-name="Ellipse 242" cx="1.053" cy="1.264" rx="1.053" ry="1.264" transform="translate(10.686 9.86)" fill="#121212"/>
        </g>
      </g>
    </g>
  </g>
</svg>
