<svg xmlns="http://www.w3.org/2000/svg" width="107" height="107" viewBox="0 0 107 107">
  <g id="Group_10023" data-name="Group 10023" transform="translate(-760 -4124)">
    <circle id="Ellipse_18" data-name="Ellipse 18" cx="53.5" cy="53.5" r="53.5" transform="translate(760 4124)" fill="#f4f7fa"/>
    <g id="Search_results_for_Chemistry_-_Flaticon-2" data-name="Search results for Chemistry - Flaticon-2" transform="translate(785.041 4149)">
      <path id="Path_3176" data-name="Path 3176" d="M55.52,51.691,36.986,22.682V7.372a2.538,2.538,0,0,0,2.686-2.686A2.538,2.538,0,0,0,36.986,2H20.871a2.538,2.538,0,0,0-2.686,2.686,2.538,2.538,0,0,0,2.686,2.686v15.31L2.337,51.691a2.672,2.672,0,0,0,2.417,4.029H53.1A2.672,2.672,0,0,0,55.52,51.691ZM39.672,36.918H18.453l7.789-12.624V7.372h5.372V24.294Z" transform="translate(0)" fill="#4807e6"/>
    </g>
  </g>
</svg>
