<svg xmlns="http://www.w3.org/2000/svg" width="104.797" height="104.797" viewBox="0 0 104.797 104.797">
  <g id="college" transform="translate(-906.686 -68)">
    <g id="Group_10149" data-name="Group 10149" transform="translate(906.686 68)">
      <g id="Group_1" data-name="Group 1" transform="translate(0)">
        <path id="Path_1" data-name="Path 1" d="M331.641,423.046A24.055,24.055,0,1,0,355.7,447.1,24.055,24.055,0,0,0,331.641,423.046Zm0,35.17A11.115,11.115,0,1,1,342.756,447.1,11.115,11.115,0,0,1,331.641,458.216Z" transform="translate(-279.242 -394.702)" fill="#4807e6"/>
        <circle id="Ellipse_1" data-name="Ellipse 1" cx="11.115" cy="11.115" r="11.115" transform="translate(41.284)" fill="#4807e6"/>
        <circle id="Ellipse_2" data-name="Ellipse 2" cx="11.115" cy="11.115" r="11.115" transform="translate(70.476 12.092)" fill="#4807e6"/>
        <circle id="Ellipse_3" data-name="Ellipse 3" cx="11.115" cy="11.115" r="11.115" transform="translate(82.567 41.284)" fill="#4807e6"/>
        <circle id="Ellipse_4" data-name="Ellipse 4" cx="11.115" cy="11.115" r="11.115" transform="translate(70.476 70.476)" fill="#4807e6"/>
        <circle id="Ellipse_5" data-name="Ellipse 5" cx="11.115" cy="11.115" r="11.115" transform="translate(41.284 82.567)" fill="#4807e6"/>
        <circle id="Ellipse_6" data-name="Ellipse 6" cx="11.115" cy="11.115" r="11.115" transform="translate(12.092 70.476)" fill="#4807e6"/>
        <circle id="Ellipse_7" data-name="Ellipse 7" cx="11.115" cy="11.115" r="11.115" transform="translate(0 41.284)" fill="#4807e6"/>
        <circle id="Ellipse_8" data-name="Ellipse 8" cx="11.115" cy="11.115" r="11.115" transform="translate(12.092 12.092)" fill="#4807e6"/>
      </g>
    </g>
    <path id="Path_3315" data-name="Path 3315" d="M22,0A22,22,0,1,1,0,22,22,22,0,0,1,22,0Z" transform="translate(937 98.314)" fill="#4807e6"/>
    <g id="Search_results_for_University_-_Flaticon-2" data-name="Search results for University - Flaticon-2" transform="translate(944.806 106.986)">
      <g id="Group_10058" data-name="Group 10058" transform="translate(0 0)">
        <g id="Group_10057" data-name="Group 10057">
          <path id="Path_3188" data-name="Path 3188" d="M26.515,27.295H24.657V25.739H4.116v1.556h-1.8v1.5H.942v1.558H27.833V28.791H26.515Z" transform="translate(-0.103 -3.693)" fill="#fff"/>
          <path id="Path_3189" data-name="Path 3189" d="M8.829,23.1V15.311h.9V14.288a1.133,1.133,0,0,0-1.133-1.133H4.63A1.132,1.132,0,0,0,3.5,14.288v1.023h.959V23.1Z" transform="translate(-0.384 -2.311)" fill="#fff"/>
          <path id="Path_3190" data-name="Path 3190" d="M26.934,23.1V15.311h.958V14.29a1.132,1.132,0,0,0-1.131-1.133H22.8a1.132,1.132,0,0,0-1.131,1.133v1.022h.958V23.1Z" transform="translate(-2.38 -2.311)" fill="#fff"/>
          <path id="Path_3191" data-name="Path 3191" d="M17.851,23.1V15.311h.959V14.288a1.132,1.132,0,0,0-1.131-1.133H13.714a1.132,1.132,0,0,0-1.132,1.133v1.023h.9V23.1Z" transform="translate(-1.382 -2.311)" fill="#fff"/>
          <path id="Path_3192" data-name="Path 3192" d="M15.229,1.24a2.141,2.141,0,0,0-2.073,0L1.244,7.831A2.409,2.409,0,0,0,0,9.942v.739H28.387V9.942a2.413,2.413,0,0,0-1.243-2.111ZM9.676,7.446a.259.259,0,0,1-.125-.485l3.6-1.995a2.151,2.151,0,0,1,2.076,0l3.6,1.995a.259.259,0,0,1,.128.291.256.256,0,0,1-.249.194Z" transform="translate(0 -0.972)" fill="#fff"/>
        </g>
      </g>
    </g>
  </g>
</svg>
