<svg xmlns="http://www.w3.org/2000/svg" width="59" height="57" viewBox="0 0 59 57">
  <g id="Group_10213" data-name="Group 10213" transform="translate(-632 -465)">
    <ellipse id="Ellipse_18" data-name="Ellipse 18" cx="29.5" cy="28.5" rx="29.5" ry="28.5" transform="translate(632 465)" fill="transparent"/>
    <g id="Search_results_for_University_-_Flaticon-2" data-name="Search results for University - Flaticon-2" transform="translate(647 480)">
      <g id="Group_10058" data-name="Group 10058" transform="translate(0 0)">
        <g id="Group_10057" data-name="Group 10057">
          <path id="Path_3188" data-name="Path 3188" d="M26.515,27.295H24.657V25.739H4.116v1.556h-1.8v1.5H.942v1.558H27.833V28.791H26.515Z" transform="translate(-0.103 -3.693)" fill="#4807e6"/>
          <path id="Path_3189" data-name="Path 3189" d="M8.829,23.1V15.311h.9V14.288a1.133,1.133,0,0,0-1.133-1.133H4.63A1.132,1.132,0,0,0,3.5,14.288v1.023h.959V23.1Z" transform="translate(-0.384 -2.311)" fill="#4807e6"/>
          <path id="Path_3190" data-name="Path 3190" d="M26.934,23.1V15.311h.958V14.29a1.132,1.132,0,0,0-1.131-1.133H22.8a1.132,1.132,0,0,0-1.131,1.133v1.022h.958V23.1Z" transform="translate(-2.38 -2.311)" fill="#4807e6"/>
          <path id="Path_3191" data-name="Path 3191" d="M17.851,23.1V15.311h.959V14.288a1.132,1.132,0,0,0-1.131-1.133H13.714a1.132,1.132,0,0,0-1.132,1.133v1.023h.9V23.1Z" transform="translate(-1.382 -2.311)" fill="#4807e6"/>
          <path id="Path_3192" data-name="Path 3192" d="M15.229,1.24a2.141,2.141,0,0,0-2.073,0L1.244,7.831A2.409,2.409,0,0,0,0,9.942v.739H28.387V9.942a2.413,2.413,0,0,0-1.243-2.111ZM9.676,7.446a.259.259,0,0,1-.125-.485l3.6-1.995a2.151,2.151,0,0,1,2.076,0l3.6,1.995a.259.259,0,0,1,.128.291.256.256,0,0,1-.249.194Z" transform="translate(0 -0.972)" fill="#4807e6"/>
        </g>
      </g>
    </g>
  </g>
</svg>
