<svg xmlns="http://www.w3.org/2000/svg" width="28" height="28" viewBox="0 0 28 28">
  <g id="Search_results_for_Plans_-_Flaticon-2" data-name="Search results for Plans - Flaticon-2" transform="translate(0 0.001)">
    <path id="Path_4192" data-name="Path 4192" d="M16.093,6.378a7.893,7.893,0,1,0,5.528,5.528.875.875,0,0,1,1.688-.463A9.643,9.643,0,1,1,16.556,4.69a.875.875,0,1,1-.463,1.688ZM26.338,9.43a.875.875,0,0,0-.591,1.087,12.237,12.237,0,1,1-8.266-8.266.875.875,0,1,0,.5-1.678,13.987,13.987,0,1,0,9.447,9.447.875.875,0,0,0-1.087-.591ZM14,10.5a3.556,3.556,0,0,1,.386.021.875.875,0,1,0,.191-1.739A5.25,5.25,0,1,0,19.25,14a.875.875,0,1,0-1.75,0A3.5,3.5,0,1,1,14,10.5Zm4.468-2.2L18.9,3.922a.875.875,0,0,1,.252-.532L22.29.256a.875.875,0,0,1,1.491.55L24.03,3.97l3.164.249a.875.875,0,0,1,.55,1.491L24.609,8.844a.875.875,0,0,1-.532.252l-4.372.436-5.086,5.086a.875.875,0,0,1-1.237-1.237Zm1.816-.579,3.308-.33,1.571-1.571-2.016-.158a.875.875,0,0,1-.8-.8l-.158-2.016L20.614,4.407Z" transform="translate(0)" fill="#121212"/>
  </g>
</svg>
