<svg id="_404_error_with_a_tired_person-pana" data-name="404 error with a tired person-pana" xmlns="http://www.w3.org/2000/svg" width="363.605" height="345.007" viewBox="0 0 363.605 345.007">
  <g id="freepik--background-complete--inject-2" transform="translate(20.345 0)">
    <path id="Path_3929" data-name="Path 3929" d="M56.364,461.329c-1.032-.885-3.33-3.687-1.552-6.94.644-1.2,2.026-1.785,3.276-2.329a13.4,13.4,0,0,0,3.594-1.863c1.948-1.661,2.484-4.409,3.78-6.621a8.274,8.274,0,0,1,7.18-4.308c3.353.155,6.148,2.888,7.421,6.016s1.312,6.583,1.335,9.959c0,1.863-.07,3.967-1.436,5.224s-3.167,1.172-4.875,1.126l-18.319-.567" transform="translate(-43.168 -125.567)" fill="#f5f5f5"/>
    <path id="Path_3930" data-name="Path 3930" d="M88.22,402.78H40l8.678,51.752a5.783,5.783,0,0,0,4.114,4.611l.171.047a3.821,3.821,0,0,0,.427.109,5.8,5.8,0,0,0,.978.116v.047l.233-.039H76.126a5.96,5.96,0,0,0,1.18-.116,5.806,5.806,0,0,0,4.875-5.053l4.184-35.66.186-1.421h0l1.661-14.128Zm-9.09,33.013H74.154l.528-14.989h5.729ZM80.892,420.8h4.735l-1.762,15.02H79.588ZM66.765,452.475l-.3-13.041H73.58l-.427,13.049Zm-7.7-13.041h6.916l.3,13.049h-6.21Zm.536,13.049H53.8c-.551-3.524-1.273-8.1-2.049-13.049h6.831Zm-.776-16.65-1.2-15.028h7.933l.349,15.02Zm7.592,0-.38-15.028H74.2l-.5,15.02Zm-.427-18.63-.373-13.941h9.167l-.458,13.91Zm-.481,0H57.333l-1.079-13.941h8.9Zm-8.608,0H48.251c-.3-1.925-.6-3.741-.854-5.379-.9-5.62-1.234-7.762-1.421-8.539h9.8Zm.279,3.6,1.164,15.02H51.186c-.241-1.552-.481-3.066-.722-4.611-.559-3.547-1.118-7.087-1.646-10.409Zm-6.435,15.02H46.086L43.532,420.8h4.8c.737,4.611,1.545,9.781,2.368,14.989Zm.567,3.6c.706,4.518,1.4,8.966,2.042,13.049h-4.5L46.66,439.434Zm22.356,13.049.4-13.041h4.751l-1.118,13.049ZM74.838,417.2l.466-13.91h6.614L80.729,417.2ZM45.519,403.261c.186,1,1.071,6.482,2.243,13.91H42.926L40.6,403.261Zm36.4,49.182H78.191l1.11-13.01h4.168Zm4.137-35.272H81.195l1.188-13.91h5.294Z" transform="translate(-40 -117.404)" fill="#e0e0e0"/>
    <rect id="Rectangle_2427" data-name="Rectangle 2427" width="77.701" height="112.624" transform="translate(8.562 7.568)" fill="#e0e0e0"/>
    <rect id="Rectangle_2428" data-name="Rectangle 2428" width="77.701" height="112.624" transform="translate(4.673 7.568)" fill="#f5f5f5"/>
    <rect id="Rectangle_2429" data-name="Rectangle 2429" width="58.396" height="88.227" transform="translate(14.322 19.763)" fill="#fff"/>
    <path id="Path_3931" data-name="Path 3931" d="M116.808,148.74v-6.52c0-4.23,0-10.394-.054-18.172,0-15.525-.054-37.593-.093-63.535l.194.194H58.466l.217-.21c0,33.285,0,63.97-.047,88.227l-.171-.171,42.507.093,11.744.039h.085l-11.706.039-42.608.093h-.163v-.171c0-24.257,0-54.942-.047-88.227v-.21h58.8V60.4c-.039,26-.07,48.072-.093,63.652,0,7.762-.047,13.91-.054,18.133v6.024A1.331,1.331,0,0,1,116.808,148.74Z" transform="translate(-44.09 -40.75)" fill="#e0e0e0"/>
    <path id="Path_3932" data-name="Path 3932" d="M143.35,44.89a15.409,15.409,0,0,1-1.389,2.01c-.9,1.2-2.181,2.849-3.641,4.657s-2.833,3.346-3.842,4.463a13.809,13.809,0,0,1-1.708,1.739,14.236,14.236,0,0,1,1.483-1.933c1.04-1.265,2.329-2.826,3.741-4.541l3.734-4.541A14.243,14.243,0,0,1,143.35,44.89Z" transform="translate(-60.758 -37.322)" fill="#e0e0e0"/>
    <path id="Path_3933" data-name="Path 3933" d="M134.06,173.89a72.283,72.283,0,0,0,10.184,12.738" transform="translate(-61.047 -66.187)" fill="#fff"/>
    <path id="Path_3934" data-name="Path 3934" d="M144.233,186.628a11.285,11.285,0,0,1-1.77-1.615,53.7,53.7,0,0,1-3.881-4.331,55.351,55.351,0,0,1-3.384-4.7,11.427,11.427,0,0,1-1.188-2.088,16.712,16.712,0,0,1,1.436,1.925c.854,1.2,2.057,2.841,3.462,4.6s2.748,3.291,3.734,4.394A17.03,17.03,0,0,1,144.233,186.628Z" transform="translate(-61.036 -66.187)" fill="#e0e0e0"/>
    <path id="Path_3935" data-name="Path 3935" d="M46,186.24l10.176-12.56" transform="translate(-41.343 -66.14)" fill="#fff"/>
    <path id="Path_3936" data-name="Path 3936" d="M56.176,173.68a74.6,74.6,0,0,1-4.921,6.412A77.074,77.074,0,0,1,46,186.24c-.085-.07,2.119-2.942,4.929-6.412A80.044,80.044,0,0,1,56.176,173.68Z" transform="translate(-41.342 -66.14)" fill="#e0e0e0"/>
    <path id="Path_3937" data-name="Path 3937" d="M46,44.89a71.568,71.568,0,0,1,4.937,5.9,70.453,70.453,0,0,1,4.611,6.171,69.863,69.863,0,0,1-4.89-5.907A70.5,70.5,0,0,1,46,44.89Z" transform="translate(-41.343 -37.322)" fill="#e0e0e0"/>
    <rect id="Rectangle_2430" data-name="Rectangle 2430" width="19.553" height="55.517" transform="translate(34.97 37.679)" fill="#e0e0e0"/>
    <rect id="Rectangle_2431" data-name="Rectangle 2431" width="73.347" height="76.459" transform="translate(248.691 0.023)" fill="#e0e0e0"/>
    <rect id="Rectangle_2432" data-name="Rectangle 2432" width="73.347" height="76.459" transform="translate(243.723 0.023)" fill="#fafafa"/>
    <path id="Path_3938" data-name="Path 3938" d="M427.354,111.646H354V35.14h73.354ZM354,111.6h73.3V35.187H354Z" transform="translate(-110.261 -35.14)" fill="#e0e0e0"/>
    <rect id="Rectangle_2433" data-name="Rectangle 2433" width="53.63" height="55.905" transform="translate(253.581 10.301)" fill="#fff"/>
    <path id="Path_3939" data-name="Path 3939" d="M363.858,120.91a8.889,8.889,0,0,1-1.32,1.552c-.862.9-2.065,2.127-3.408,3.454s-2.593,2.515-3.509,3.353a8.537,8.537,0,0,1-1.552,1.289,9.158,9.158,0,0,1,1.32-1.552c.854-.9,2.065-2.127,3.415-3.462s2.6-2.523,3.509-3.361A8.3,8.3,0,0,1,363.858,120.91Z" transform="translate(-110.277 -54.332)" fill="#e0e0e0"/>
    <path id="Path_3940" data-name="Path 3940" d="M435.77,120.73a8.541,8.541,0,0,1,1.552,1.32c.908.862,2.127,2.065,3.454,3.415s2.515,2.585,3.361,3.5a8.54,8.54,0,0,1,1.289,1.552,8.884,8.884,0,0,1-1.552-1.32c-.9-.854-2.127-2.065-3.462-3.415s-2.515-2.6-3.361-3.509A8.718,8.718,0,0,1,435.77,120.73Z" transform="translate(-128.558 -54.292)" fill="#e0e0e0"/>
    <path id="Path_3941" data-name="Path 3941" d="M435.58,45.816a8.864,8.864,0,0,1,1.327-1.552c.854-.908,2.057-2.127,3.408-3.454s2.585-2.515,3.5-3.353a8.436,8.436,0,0,1,1.553-1.3,8.475,8.475,0,0,1-1.32,1.552c-.854.9-2.065,2.127-3.415,3.462s-2.593,2.515-3.509,3.361a8.4,8.4,0,0,1-1.545,1.281Z" transform="translate(-128.516 -35.368)" fill="#e0e0e0"/>
    <path id="Path_3942" data-name="Path 3942" d="M363.706,45.958a8.865,8.865,0,0,1-1.552-1.327c-.9-.854-2.127-2.057-3.454-3.408s-2.515-2.593-3.353-3.5a8.434,8.434,0,0,1-1.3-1.552,8.47,8.47,0,0,1,1.553,1.32c.9.854,2.127,2.057,3.462,3.415s2.515,2.593,3.361,3.509a8.01,8.01,0,0,1,1.281,1.545Z" transform="translate(-110.272 -35.37)" fill="#e0e0e0"/>
    <path id="Path_3943" data-name="Path 3943" d="M420.127,104.245v-4.067c0-2.647,0-6.5-.054-11.387,0-9.8-.062-23.745-.109-40.442l.21.2H366.7l.241-.233c0,20.516,0,39.712-.039,55.889l-.2-.21,38.727.109,10.867.054h3.656a1.722,1.722,0,0,1,.256,0h-3.8l-10.829.054-38.858.1h-.2V48.1h53.925v.21c-.047,16.751-.085,30.747-.109,40.574,0,4.867,0,8.709-.054,11.341v3.757A1.555,1.555,0,0,1,420.127,104.245Z" transform="translate(-113.063 -38.04)" fill="#e0e0e0"/>
    <rect id="Rectangle_2434" data-name="Rectangle 2434" width="17.892" height="17.892" transform="translate(271.45 29.303)" fill="#ebebeb"/>
    <path id="Path_3944" data-name="Path 3944" d="M304.37,444.18v23.373h71.88V444.18Z" transform="translate(-99.156 -126.668)" fill="#f5f5f5"/>
    <path id="Path_3945" data-name="Path 3945" d="M300.48,435.76V442.3h77.406V435.76H300.48Z" transform="translate(-98.285 -124.784)" fill="#e0e0e0"/>
    <path id="Path_3946" data-name="Path 3946" d="M349.906,465.668h36.2V442.3h2.507V435.76H348.4v5.93Z" transform="translate(-109.008 -124.784)" fill="#e0e0e0"/>
    <rect id="Rectangle_2435" data-name="Rectangle 2435" width="14.578" height="3.516" transform="translate(215.266 321.277)" fill="#e0e0e0"/>
    <rect id="Rectangle_2436" data-name="Rectangle 2436" width="18.715" height="7.429" transform="translate(213.388 329.195)" fill="#fff"/>
    <path id="Path_3947" data-name="Path 3947" d="M318.61,405.69v23.372h71.88V405.69Z" transform="translate(-102.342 -118.055)" fill="#f5f5f5"/>
    <path id="Path_3948" data-name="Path 3948" d="M315.17,397.27v6.536h77.414V397.27H315.17Z" transform="translate(-101.573 -116.171)" fill="#ebebeb"/>
    <path id="Path_3949" data-name="Path 3949" d="M364.156,427.178h36.538V403.806h2.166V397.27H362.65v5.93Z" transform="translate(-112.197 -116.171)" fill="#ebebeb"/>
    <rect id="Rectangle_2437" data-name="Rectangle 2437" width="14.578" height="3.516" transform="translate(226.32 291.4)" fill="#e0e0e0"/>
    <rect id="Rectangle_2438" data-name="Rectangle 2438" width="18.715" height="7.429" transform="translate(224.449 299.317)" fill="#fff"/>
  </g>
  <g id="freepik--Floor--inject-2" transform="translate(0 341.436)">
    <path id="Path_3950" data-name="Path 3950" d="M377.4,475.217c0,.109-81.4.2-181.795.2s-181.81-.093-181.81-.2S95.179,475,195.593,475,377.4,475.1,377.4,475.217Z" transform="translate(-13.79 -475)" fill="#263238"/>
  </g>
  <g id="freepik--text-2--inject-2" transform="translate(149.146 126.418)">
    <path id="Path_3951" data-name="Path 3951" d="M244.845,223.6v.776h-3.1v-.613l1.785-2.111h-1.739v-.776h3.02v.613l-1.785,2.111Z" transform="translate(-213.943 -203.12)" fill="#4807e6"/>
    <path id="Path_3952" data-name="Path 3952" d="M236.3,218.163v1.832H229v-1.436l4.176-4.937h-4.068V211.79h7.072v1.436l-4.192,4.937Z" transform="translate(-211.092 -201.086)" fill="#4807e6"/>
    <path id="Path_3953" data-name="Path 3953" d="M220.678,210.878v3.687H205.93v-2.888l8.422-9.959h-8.2V198H220.4v2.888l-8.414,9.959Z" transform="translate(-205.93 -198)" fill="#4807e6"/>
  </g>
  <g id="freepik--Character--inject-2" transform="translate(18.838 109.488)">
    <rect id="Rectangle_2439" data-name="Rectangle 2439" width="9.579" height="46.008" transform="translate(66.836 160.806)" fill="#e0e0e0"/>
    <path id="Path_3968" data-name="Path 3968" d="M86.19,375.72c.155,0,29.5,9.2,29.5,9.2h9.571l33.6-9.2Z" transform="translate(-48.828 -220.837)" fill="#e0e0e0"/>
    <path id="Path_3969" data-name="Path 3969" d="M48.647,176.764c-4.246.955-8.042,4.875-7.405,12.7,0,0-3.384.637-3.175,6.777s-.419,44.246,7.2,64.971c6.264,17.038,17.077,53.483,20.757,65.926a5.946,5.946,0,0,0,5.705,4.262h82.84a10.867,10.867,0,0,0,10.821-11.286h0a10.867,10.867,0,0,0-10.937-10.378l-60.407.629s-3.7-19.949-7.514-20.182c0,0,1.692-12.49-4.657-16.084,0,0,1.265-15.416-5.5-16.806,0,0,1.056-12.9-4.657-15.191,0,0,3.175-11.6-2.748-17.527,0,0,1.692-13.545,0-23.706S66.648,172.751,48.647,176.764Z" transform="translate(-38.058 -176.189)" fill="#455a64"/>
    <path id="Path_3970" data-name="Path 3970" d="M161.058,324.921h-1.646l-4.758.039-17.737.054-60.694.07h-.14l-.047-.132L67.5,300.19c-4.96-14.508-9.656-28.34-13.794-40.962-1.032-3.159-2.026-6.21-2.957-9.253a41.467,41.467,0,0,1-1.2-4.5,20.844,20.844,0,0,1-.357-2.251c-.085-.776-.217-1.49-.264-2.228-.536-5.892-.66-11.4-.776-16.425-.132-10.045,0-18.18.14-23.792.078-2.8.14-4.976.179-6.466l.07-1.684a3.106,3.106,0,0,1,.039-.567v2.251c0,1.49-.062,3.672-.109,6.466-.078,5.62-.179,13.747,0,23.792.109,5.014.248,10.518.776,16.394.054.776.179,1.467.264,2.212a20.182,20.182,0,0,0,.365,2.228,40.6,40.6,0,0,0,1.25,4.5c.931,3,1.933,6.078,2.973,9.237,4.153,12.614,8.865,26.439,13.817,40.947,2.95,8.539,5.806,16.906,8.539,24.77l-.186-.132,60.694.07,17.737.054h5.985A3.548,3.548,0,0,0,161.058,324.921Z" transform="translate(-40.305 -179.741)" fill="#263238"/>
    <path id="Path_3971" data-name="Path 3971" d="M93.768,349.16a5.1,5.1,0,0,1-.776.675c-.52.411-1.258,1.032-2.142,1.809a59.693,59.693,0,0,0-6.427,6.614,62.811,62.811,0,0,0-5.356,7.506c-.613,1.009-1.094,1.84-1.413,2.422a5.139,5.139,0,0,1-.543.877,5,5,0,0,1,.4-.947c.279-.605.722-1.459,1.3-2.492a52.92,52.92,0,0,1,5.294-7.63,50.455,50.455,0,0,1,6.551-6.567,27.914,27.914,0,0,1,2.228-1.715A4.836,4.836,0,0,1,93.768,349.16Z" transform="translate(-46.796 -214.894)" fill="#263238"/>
    <path id="Path_3972" data-name="Path 3972" d="M94.966,313.875h-.6l-1.739.047-6.676.109h-.085v-.085l-.14-.823a6.349,6.349,0,0,0-.3-.776,2.329,2.329,0,0,0-1.327-1.157,5.543,5.543,0,0,0-3.959.629l-.279.132.1-.287a15.183,15.183,0,0,0,.388-8.5,15.354,15.354,0,0,0-5.263-8.438l-.1-.078.047-.116a12.707,12.707,0,0,0-3.493-13.67l-.1-.078.047-.124a16.13,16.13,0,0,0-6.21-18l-.093-.062v-.109a53.091,53.091,0,0,0-.2-6.419,32.8,32.8,0,0,0-1.2-6.443,9.7,9.7,0,0,0-3.3-5.247l-.124-.085.047-.14a28.169,28.169,0,0,0,1.048-9.61,17.186,17.186,0,0,0-.978-4.5,12.42,12.42,0,0,0-2.329-3.8l-.093-.109.07-.116a17.582,17.582,0,0,0,2.7-9.012,13.111,13.111,0,0,0-2.67-7.987v-.1a25.445,25.445,0,0,0-2.259-11.131,10.945,10.945,0,0,0-2.857-3.672,8.656,8.656,0,0,0-3.516-1.7,11.085,11.085,0,0,0-3.152-.217l-1.265.14-1.04.21c-.621.116-1.079.287-1.389.357s-.481.116-.481.116a18.634,18.634,0,0,1,1.847-.559l1.04-.233,1.281-.163a10.977,10.977,0,0,1,3.19.186,8.67,8.67,0,0,1,3.617,1.7,11.085,11.085,0,0,1,2.942,3.726,25.562,25.562,0,0,1,2.329,11.248v-.093a13.4,13.4,0,0,1,2.763,8.174,17.946,17.946,0,0,1-2.732,9.214V226a12.924,12.924,0,0,1,2.414,3.881,17.458,17.458,0,0,1,1.009,4.657,28.31,28.31,0,0,1-1.048,9.765l-.171-.287a10.075,10.075,0,0,1,3.462,5.434,32.135,32.135,0,0,1,1.226,6.52,52.373,52.373,0,0,1,.194,6.474l-.085-.178a16.511,16.511,0,0,1,6.373,18.459l-.054-.21a13.033,13.033,0,0,1,3.524,14.112l-.054-.194a15.525,15.525,0,0,1,5.341,8.632,15.354,15.354,0,0,1-.442,8.655l-.171-.155a8.168,8.168,0,0,1,2.088-.7,4.029,4.029,0,0,1,2.065.085,2.523,2.523,0,0,1,1.459,1.374,6.3,6.3,0,0,1,.31.854l.14.854-.093-.085h8.414Z" transform="translate(-38.983 -179.733)" fill="#263238"/>
    <g id="Group_16199" data-name="Group 16199" transform="translate(17.195 97.659)" opacity="0.3">
      <path id="Path_3973" data-name="Path 3973" d="M87.914,302l-27.7,3.571a5.5,5.5,0,0,0,4.036,2.74,17.41,17.41,0,0,0,5.038-.1,149.814,149.814,0,0,1,21.6-.776A31.122,31.122,0,0,0,87.914,302Z" transform="translate(-60.21 -302)"/>
    </g>
    <path id="Path_3974" data-name="Path 3974" d="M74.937,236.55a39.981,39.981,0,0,1-5.76.334,43.172,43.172,0,0,1-5.767-.078,39.973,39.973,0,0,1,5.76-.334A43.11,43.11,0,0,1,74.937,236.55Z" transform="translate(-43.731 -189.665)" fill="#263238"/>
    <path id="Path_3975" data-name="Path 3975" d="M77.93,458.92s4.432-13.522,10.541-16.8c9.812-5.255,32.439-7.762,32.439-7.762l2.476,6.4s-30.172,1.188-34.931,7.273A126.662,126.662,0,0,0,80.88,458.9Z" transform="translate(-46.98 -233.958)" fill="#e0e0e0"/>
    <circle id="Ellipse_237" data-name="Ellipse 237" cx="6.404" cy="6.404" r="6.404" transform="translate(28.412 219.334)" fill="#263238"/>
    <path id="Path_3976" data-name="Path 3976" d="M170.176,458.61s-4.432-13.522-10.541-16.8c-9.812-5.255-32.431-7.762-32.431-7.762l-2.484,6.4s30.172,1.188,34.931,7.281a125.868,125.868,0,0,1,7.576,10.867Z" transform="translate(-57.45 -233.889)" fill="#e0e0e0"/>
    <circle id="Ellipse_238" data-name="Ellipse 238" cx="6.404" cy="6.404" r="6.404" transform="translate(104.064 219.334)" fill="#263238"/>
    <path id="Path_3977" data-name="Path 3977" d="M126.07,438.8l1.4,17.4,3.959.784V438.8" transform="translate(-57.752 -234.951)" fill="#e0e0e0"/>
    <circle id="Ellipse_239" data-name="Ellipse 239" cx="6.404" cy="6.404" r="6.404" transform="translate(65.213 219.334)" fill="#263238"/>
    <path id="Path_3978" data-name="Path 3978" d="M69,262.676a29.8,29.8,0,0,1,4.72-1.18,29.385,29.385,0,0,1,4.8-.776,29.5,29.5,0,0,1-4.72,1.18A29.642,29.642,0,0,1,69,262.676Z" transform="translate(-44.982 -195.104)" fill="#263238"/>
    <path id="Path_3979" data-name="Path 3979" d="M83.453,280.686a6.466,6.466,0,0,1-1.591.512,38.981,38.981,0,0,1-3.943.776c-1.552.225-2.965.388-3.99.45a6.285,6.285,0,0,1-1.669,0c0-.116,2.515-.357,5.6-.846S83.422,280.577,83.453,280.686Z" transform="translate(-45.711 -199.568)" fill="#263238"/>
    <path id="Path_3980" data-name="Path 3980" d="M97.755,323.9a7.707,7.707,0,0,1-1.847.279c-1.149.116-2.74.217-4.5.272s-3.353,0-4.51,0a7.711,7.711,0,0,1-1.855-.179,9.376,9.376,0,0,1,1.863-.109l4.494-.1,4.487-.155A9.376,9.376,0,0,1,97.755,323.9Z" transform="translate(-48.571 -209.231)" fill="#263238"/>
    <path id="Path_3981" data-name="Path 3981" d="M102.435,339.57c0,.124-2.577.683-5.581,1.964s-5.224,2.74-5.294,2.639a5.843,5.843,0,0,1,1.4-1.056,25.7,25.7,0,0,1,3.741-1.956,24.981,24.981,0,0,1,4.005-1.32,6.677,6.677,0,0,1,1.731-.272Z" transform="translate(-50.03 -212.748)" fill="#263238"/>
    <path id="Path_3982" data-name="Path 3982" d="M152.628,376.246c0,.109-15.269.171-34.1.124s-34.108-.155-34.108-.272,15.269-.171,34.108-.132S152.628,376.129,152.628,376.246Z" transform="translate(-48.432 -220.889)" fill="#263238"/>
    <path id="Path_3983" data-name="Path 3983" d="M133.251,387.935a25.358,25.358,0,0,1-4.557.2,25.407,25.407,0,0,1-4.564-.2,26.285,26.285,0,0,1,4.564-.2A26.235,26.235,0,0,1,133.251,387.935Z" transform="translate(-57.318 -223.519)" fill="#263238"/>
    <path id="Path_3984" data-name="Path 3984" d="M133.782,435.78a9.858,9.858,0,0,1-9.222.241,20.185,20.185,0,0,0,4.657.621A20.182,20.182,0,0,0,133.782,435.78Z" transform="translate(-57.414 -234.276)" fill="#263238"/>
    <path id="Path_3985" data-name="Path 3985" d="M244.531,246.557s-3.648-5.6-5.76-7.506c-1.63-1.467-9.54-4.378-13.1-5.643a10.868,10.868,0,0,0-3.547-.621c-4.657-.047-16.969,0-23.241,1.118-7.817,1.428,44.044,42.212,44.044,42.212l43.2.1,2.826-10.666L260.118,259.6l-15.913-12.622" transform="translate(-73.866 -188.851)" fill="#e0e0e0"/>
    <g id="Group_16200" data-name="Group 16200" transform="translate(136.961 46.528)" opacity="0.3">
      <path id="Path_3986" data-name="Path 3986" d="M214.5,236.13s2.857.14,6.839.776,8.352.838,10.541,2.779c1.467,1.3,10.44,1.552,10.44,1.552l-12.42-.458Z" transform="translate(-214.5 -236.13)"/>
    </g>
    <path id="Path_3987" data-name="Path 3987" d="M209.22,234.81a2.938,2.938,0,0,1,.776.093c.5.093,1.242.241,2.135.466,1.793.442,4.246,1.126,6.94,1.933l2.973.924H222a31.817,31.817,0,0,1,6.008.846h0a4.1,4.1,0,0,1,.373.963,4.759,4.759,0,0,1-.528-.885l.047.047a48.663,48.663,0,0,0-5.969-.629h-.047l-2.981-.9-6.893-2.042-2.1-.6A2.935,2.935,0,0,1,209.22,234.81Z" transform="translate(-76.357 -189.306)" fill="#263238"/>
    <path id="Path_3988" data-name="Path 3988" d="M345.043,285c.062-.326-.854-4.044-.947-4.417s-2.934-4.657-2.934-4.657l-1.552-.474s-7.219-1.715-8.678-1.615l-1.017.109s-1.894.14-2.639.272-5.364,1.754-5.364,1.754a12.894,12.894,0,0,1-3.447.256,45.877,45.877,0,0,1-4.727-1.025l-1.847,10.169,3.493-.109a17.59,17.59,0,0,0,3.361.831c1.257.085,4.82.473,4.82.473s5.5,2.329,6.885-.916-3.928-3.578-3.928-3.578l1.646-1.164,4.215-.435,1.095.349,1.2,1.863s-.326,4.114,2.329,3.835l.7-.078.373-4.223-1.258-4.269,2.779,4.215s.241,3.648,1.444,4.122a.629.629,0,0,0,.295.054c1.459-.047,1.747-.458,1.747-.458l.3-.737S344.834,286.111,345.043,285Z" transform="translate(-99.331 -198.039)" fill="#ffbf9d"/>
    <path id="Path_3989" data-name="Path 3989" d="M334.27,273.989a3.572,3.572,0,0,1,1.32.054,12.68,12.68,0,0,1,3.1.831,6.45,6.45,0,0,1,2.616,1.863,2.236,2.236,0,0,1,.574,1.2c-.07,0-.264-.443-.776-1.017a7.251,7.251,0,0,0-2.562-1.677C336.265,274.339,334.247,274.137,334.27,273.989Z" transform="translate(-104.339 -198.065)" fill="#ff9a6c"/>
    <path id="Path_3990" data-name="Path 3990" d="M337.718,279.72c.109,0,.186.442.241.97s.07.978-.039,1.009-.3-.4-.365-.963S337.6,279.712,337.718,279.72Z" transform="translate(-105.07 -199.355)" fill="#ff9a6c"/>
    <path id="Path_3991" data-name="Path 3991" d="M334.27,279.9c.085-.078.854.776,2.08,1.366s2.329.776,2.329.869a3.835,3.835,0,0,1-2.523-.512A3.741,3.741,0,0,1,334.27,279.9Z" transform="translate(-104.339 -199.394)" fill="#ff9a6c"/>
    <path id="Path_3992" data-name="Path 3992" d="M322.93,280.39a2.267,2.267,0,0,1,1.087.388,6.077,6.077,0,0,1,2.073,1.871,7.075,7.075,0,0,1,.45.776l-.21-.109a5.433,5.433,0,0,1,3.02.256,24.829,24.829,0,0,0-2.957.132h-.14l-.07-.124a6.985,6.985,0,0,0-.427-.722A9.96,9.96,0,0,0,322.93,280.39Z" transform="translate(-101.801 -199.505)" fill="#ff9a6c"/>
    <path id="Path_3993" data-name="Path 3993" d="M347.8,275.87a4.727,4.727,0,0,1,1.048,1.172,14.225,14.225,0,0,1,1.785,3.353,13.851,13.851,0,0,1,.831,3.71,4.535,4.535,0,0,1,0,1.552,19.957,19.957,0,0,0-3.664-9.788Z" transform="translate(-107.366 -198.494)" fill="#ff9a6c"/>
    <path id="Path_3994" data-name="Path 3994" d="M253.353,432.751l-.776,21.005s21.059,7.887,21.292,11.768l-40.784-.085L233,432.65Z" transform="translate(-81.679 -233.575)" fill="#455a64"/>
    <path id="Path_3995" data-name="Path 3995" d="M241.66,457.519a1.653,1.653,0,0,0-1.149,1.894,1.591,1.591,0,0,0,1.871,1.164,1.754,1.754,0,0,0,1.211-2.018,1.669,1.669,0,0,0-2.08-.994" transform="translate(-83.353 -239.132)" fill="#e0e0e0"/>
    <path id="Path_3996" data-name="Path 3996" d="M233.11,473.927l.124-3.307,39.053,1.32s1.809.776,1.607,2.073Z" transform="translate(-81.703 -242.072)" fill="#263238"/>
    <path id="Path_3997" data-name="Path 3997" d="M257.975,459.518c0,.2-1.009.287-1.987.924s-1.506,1.475-1.692,1.4.116-1.227,1.32-1.979S258.014,459.34,257.975,459.518Z" transform="translate(-86.432 -239.547)" fill="#fff"/>
    <path id="Path_3998" data-name="Path 3998" d="M263.767,461.838c.047.194-.815.528-1.5,1.374s-.869,1.731-1.071,1.723-.326-1.141.543-2.166S263.767,461.651,263.767,461.838Z" transform="translate(-87.955 -240.089)" fill="#fff"/>
    <path id="Path_3999" data-name="Path 3999" d="M267.6,467.469c-.186.047-.458-.947.054-2.042s1.444-1.552,1.552-1.351-.5.776-.9,1.646S267.795,467.453,267.6,467.469Z" transform="translate(-89.367 -240.597)" fill="#fff"/>
    <path id="Path_4000" data-name="Path 4000" d="M257.378,453.179c-.085.179-1-.093-2.127,0s-2,.427-2.1.256.737-.877,2.065-.947S257.471,453.024,257.378,453.179Z" transform="translate(-86.185 -238.013)" fill="#fff"/>
    <path id="Path_4001" data-name="Path 4001" d="M206.792,426.449l-13.2,16.3s12.125,18.94,10.006,22.2L171,440.421l19.569-26.291Z" transform="translate(-67.805 -229.431)" fill="#455a64"/>
    <path id="Path_4002" data-name="Path 4002" d="M187.83,439.392a1.677,1.677,0,0,0-2.065.831,1.6,1.6,0,0,0,.776,2.049,1.762,1.762,0,0,0,2.181-.885,1.661,1.661,0,0,0-1.071-2.042" transform="translate(-71.082 -235.062)" fill="#e0e0e0"/>
    <path id="Path_4003" data-name="Path 4003" d="M171,447.259l2.073-2.569,30.467,24.467s.978,1.723.047,2.624Z" transform="translate(-67.805 -236.27)" fill="#263238"/>
    <path id="Path_4004" data-name="Path 4004" d="M199.659,450.981c-.124.155-.978-.373-2.142-.45s-2.088.279-2.189.1.831-.908,2.243-.776S199.807,450.857,199.659,450.981Z" transform="translate(-73.247 -237.422)" fill="#fff"/>
    <path id="Path_4005" data-name="Path 4005" d="M202.805,456.279c-.078.186-.97-.062-2.018.2s-1.739.862-1.894.737.427-1.1,1.731-1.413S202.922,456.124,202.805,456.279Z" transform="translate(-74.041 -238.738)" fill="#fff"/>
    <path id="Path_4006" data-name="Path 4006" d="M202.469,463.024c-.171-.07.2-1.032,1.273-1.6s2.065-.349,2.034-.163-.846.295-1.708.776S202.639,463.133,202.469,463.024Z" transform="translate(-74.838 -239.933)" fill="#fff"/>
    <path id="Path_4007" data-name="Path 4007" d="M203.244,445.367c-.171.093-.737-.675-1.684-1.289s-1.863-.862-1.84-1.056,1.118-.264,2.228.481S203.415,445.3,203.244,445.367Z" transform="translate(-74.232 -235.867)" fill="#fff"/>
    <path id="Path_4008" data-name="Path 4008" d="M256.51,242.633a70.868,70.868,0,0,1,12.063-2.119,24.84,24.84,0,0,1,11.985,1.956c.559.256,4.3,2.414,4.184,3.02-.078.435-3.609-.986-4.005-.776a21.033,21.033,0,0,1-12.42,1.366,55.56,55.56,0,0,1-11.807-3.423" transform="translate(-86.939 -190.563)" fill="#263238"/>
    <path id="Path_4009" data-name="Path 4009" d="M226.075,241.27l36.685,2.414c10.246.5,18.49,6.877,17.706,17.077l-.124.939a18.342,18.342,0,0,1-19.158,15.851c-8.88-.489-18.684-1.133-23.38-1.832-9.742-1.413-9.928-11.372-9.928-11.372s-.869-.109-3.741-.373l-9.315-6.714h0Z" transform="translate(-77.611 -190.752)" fill="#ffbf9d"/>
    <path id="Path_4010" data-name="Path 4010" d="M230.857,267.487a23.707,23.707,0,0,1,5.472-12.187s-7.762,2.065-8.189,11.907Z" transform="translate(-80.591 -193.891)" fill="#ff9a6c"/>
    <path id="Path_4011" data-name="Path 4011" d="M265.316,276.636c.2.155-.45,1.312-.256,2.81s1.087,2.5.924,2.686-.419-.039-.831-.474a3.881,3.881,0,0,1-.963-2.127,3.7,3.7,0,0,1,.427-2.267C264.913,276.76,265.223,276.566,265.316,276.636Z" transform="translate(-88.651 -198.662)" fill="#263238"/>
    <path id="Path_4012" data-name="Path 4012" d="M266.6,259.374c.179.179-.621,1.234-.644,2.748s.722,2.632.528,2.787c-.078.085-.4-.1-.776-.59a3.881,3.881,0,0,1-.652-2.236,3.7,3.7,0,0,1,.776-2.181C266.193,259.443,266.566,259.288,266.6,259.374Z" transform="translate(-88.852 -194.798)" fill="#263238"/>
    <path id="Path_4013" data-name="Path 4013" d="M255.594,270.55a10.3,10.3,0,0,1,.109,2.492c0,.388,0,.776.264.862a1.949,1.949,0,0,0,1.172-.1l3.066-.737c4.362-1.009,7.925-1.684,7.964-1.506s-3.462,1.133-7.824,2.142l-3.1.691a2.251,2.251,0,0,1-1.552,0,.963.963,0,0,1-.474-.706,2.661,2.661,0,0,1,0-.66,9.781,9.781,0,0,1,.38-2.476Z" transform="translate(-86.645 -197.304)" fill="#263238"/>
    <path id="Path_4014" data-name="Path 4014" d="M277.4,265.112c-.349-.256.248-1.653.528-3.423s.2-3.276.621-3.4c.194-.054.5.295.73.955a6.008,6.008,0,0,1-.877,5.2C277.974,265,277.57,265.228,277.4,265.112Z" transform="translate(-91.59 -194.559)" fill="#263238"/>
    <path id="Path_4015" data-name="Path 4015" d="M274.973,283.747c-.3-.357.2-1.552.4-3s.093-2.74.489-2.981c.186-.109.5.132.776.714a4.768,4.768,0,0,1,.264,2.507,4.657,4.657,0,0,1-.97,2.329C275.516,283.779,275.144,283.9,274.973,283.747Z" transform="translate(-91.049 -198.912)" fill="#263238"/>
    <path id="Path_4016" data-name="Path 4016" d="M264.333,242.082c.093-.155,2.888-6.435-3.8-7.126s-6.008,6.21-5.822,6.21S264.333,242.082,264.333,242.082Z" transform="translate(-86.511 -189.328)" fill="#ffbf9d"/>
    <path id="Path_4017" data-name="Path 4017" d="M258.139,239.877a2.1,2.1,0,0,1-.14-.334,1.18,1.18,0,0,1,.078-.869A2.89,2.89,0,0,1,260.8,237.6a3.882,3.882,0,0,1,1.638.5,1.374,1.374,0,0,1,.776.97.605.605,0,0,1-.4.66c-.194.07-.326,0-.342.047s.1.155.38.132a.777.777,0,0,0,.45-.225.885.885,0,0,0,.233-.629,1.63,1.63,0,0,0-.908-1.32,3.881,3.881,0,0,0-1.824-.6,3.021,3.021,0,0,0-3.066,1.4,1.257,1.257,0,0,0,.062,1.087C257.983,239.846,258.131,239.9,258.139,239.877Z" transform="translate(-87.194 -189.824)" fill="#ff9a6c"/>
    <path id="Path_4018" data-name="Path 4018" d="M282.894,274.154c.5,1.141,4.316-1.785,5.783-4.331,2.2-3.881,3.881-9.9,3.206-13.716-.846-4.6-2.717-8.539-6.575-11.147a26.485,26.485,0,0,0-13.2-4.23,8.042,8.042,0,0,0-4.184.559c-1.553.776-2.67,2.507-4.712,2.236a2.794,2.794,0,0,0-2.111.5c-1.421,1.1-.334,2.717.831,3.524,2.484,1.715,5.6,2.181,8.6,2.593a19.779,19.779,0,0,0,6.412.179c1.149-.225,2.251-.652,3.408-.776a4.044,4.044,0,0,1,3.307.776,4.568,4.568,0,0,1,.5.6,7.025,7.025,0,0,1,.668,7.056c-1.692,3.648-4.293,9.9-3.175,11.713a10.338,10.338,0,0,0,2.763,3.284Z" transform="translate(-87.816 -190.615)" fill="#263238"/>
    <path id="Path_4019" data-name="Path 4019" d="M266.431,238.94a4.277,4.277,0,0,0-2.981-3.423c0-.054.3-.085.776.039a3.191,3.191,0,0,1,1.552.978,3.237,3.237,0,0,1,.776,1.653C266.555,238.652,266.485,238.94,266.431,238.94Z" transform="translate(-88.492 -189.454)" fill="#fff"/>
    <path id="Path_4020" data-name="Path 4020" d="M250.507,265.789a1.552,1.552,0,0,0-1.878-.877l.194-.085a1.5,1.5,0,0,0-1.615.986,1.754,1.754,0,0,0,.559,1.855,1.832,1.832,0,0,0,2.119.132A1.7,1.7,0,0,0,250.507,265.789Z" transform="translate(-84.841 -196.02)" fill="#ff9a6c"/>
    <path id="Path_4021" data-name="Path 4021" d="M250.093,267.454a1.475,1.475,0,0,0,.349-.947,1.933,1.933,0,0,0-.21-1.048,1.685,1.685,0,0,0-1.157-.512,1.824,1.824,0,0,0-1.258.264,1.289,1.289,0,0,0-.582.854,1.724,1.724,0,0,0,.21.986s-.124,0-.256-.186a1.288,1.288,0,0,1-.241-.831,1.553,1.553,0,0,1,.652-1.126,2.12,2.12,0,0,1,1.552-.365,1.909,1.909,0,0,1,1.413.714,1.949,1.949,0,0,1,.186,1.273,1.319,1.319,0,0,1-.342.776C250.2,267.461,250.093,267.477,250.093,267.454Z" transform="translate(-84.799 -195.954)" fill="#263238"/>
    <g id="Group_16201" data-name="Group 16201" transform="translate(182.676 50.972)" opacity="0.1">
      <path id="Path_4022" data-name="Path 4022" d="M294,254.581a17.923,17.923,0,0,0-15.8-12.575l-2.7-.124a3.1,3.1,0,0,0-1.4.132,1.063,1.063,0,0,0-.7,1.11c.116.528.7.776,1.219.916,3.1.831,6.365.675,9.369,1.731a12.109,12.109,0,0,1,7.685,14.531,3.609,3.609,0,0,0-.2,1.366,1.04,1.04,0,0,0,.854.963,1.335,1.335,0,0,0,1.048-.66C294.916,259.914,294.76,257.034,294,254.581Z" transform="translate(-273.393 -241.854)" fill="#fff"/>
    </g>
    <path id="Path_4023" data-name="Path 4023" d="M264.211,265.424c0,.047-.349.054-.838-.171a2.95,2.95,0,0,1-1.553-3.555c.171-.512.411-.776.45-.73a5.359,5.359,0,0,1-.171.776,3.1,3.1,0,0,0,1.413,3.237C263.924,265.269,264.258,265.362,264.211,265.424Z" transform="translate(-88.097 -195.158)" fill="#ff9a6c"/>
    <path id="Path_4024" data-name="Path 4024" d="M262.344,282.006a3.284,3.284,0,0,1,.7-3.936c.1.078-.435.831-.621,1.925S262.46,281.974,262.344,282.006Z" transform="translate(-88.162 -198.986)" fill="#ff9a6c"/>
    <path id="Path_4025" data-name="Path 4025" d="M171,316.306c.466-.171,33.378,1.436,44.059,2.375s29.194,5.977,30.11,18.552c.776,10.091.6,80.418.6,80.418H217.046l-.683-74.325-44.61-11.255Z" transform="translate(-67.805 -207.539)" fill="#263238"/>
    <g id="Group_16202" data-name="Group 16202" transform="translate(126.785 113.502)" opacity="0.3">
      <path id="Path_4026" data-name="Path 4026" d="M201.39,322.41s15.99,2.888,28.76,6.513,18.4,11.38,20.268,16a20.093,20.093,0,0,1-1.172,17.993c-2.476,4.1-14.888,18.521-14.888,18.521s-2.562-41.389-2.686-42.018S201.39,322.41,201.39,322.41Z" transform="translate(-201.39 -322.41)"/>
    </g>
    <path id="Path_4027" data-name="Path 4027" d="M228.06,346.459c-1.351-7.98-10.386-13.561-21.463-17.714-10.914-4.106-39.472-14.252-39.472-14.252l-6.839-1.685h-3.058l-1.009-3.027s-19.406-5.612-47.436,4.727l-.955.776s-.846,20.446,3.1,24.84c0,0,44.649-.629,46.993-.435s35.086,15.051,35.086,15.051l-28.03,43,23.178,16.192s13.972-19.918,22.511-31.826C222.867,365.011,229.659,355.882,228.06,346.459Z" transform="translate(-53.653 -205.742)" fill="#263238"/>
    <path id="Path_4028" data-name="Path 4028" d="M227.987,346.435s.07.481.186,1.42a17.075,17.075,0,0,1-.155,4.168,25.444,25.444,0,0,1-2.042,6.451,64.583,64.583,0,0,1-4.463,8.042c-3.71,5.845-8.74,12.614-14.322,20.594L188.221,414l-.093.132-.132-.093L164.809,397.86l-.14-.1.093-.148c8.577-13.157,18.04-27.7,28.014-43l.078.287q-9.315-4.223-19.111-8.539c-3.26-1.421-6.544-2.849-9.874-4.238-1.669-.675-3.338-1.389-5.046-1.979a5.185,5.185,0,0,0-.629-.186,1.754,1.754,0,0,0-.644-.093h-4.091c-14.632.078-28.9.279-42.592.458h-.093l-.062-.062a8.539,8.539,0,0,1-1.49-2.95,24.229,24.229,0,0,1-.776-3.159,59.77,59.77,0,0,1-.776-6.357c-.272-4.231-.295-8.391-.163-12.49v-.085l.07-.054.955-.776h0a102.868,102.868,0,0,1,24.56-5.775,80.062,80.062,0,0,1,11.83-.388,55.59,55.59,0,0,1,11.271,1.366h.085v.085c.349,1.063.675,2.057,1,3.035l-.155-.109h3.1l6.846,1.692h0l27.758,10.052,11.411,4.137a74.936,74.936,0,0,1,9.315,4.176c5.434,2.888,9.051,6.28,10.658,9.129a16.522,16.522,0,0,1,.963,1.91,14.679,14.679,0,0,1,.489,1.475c.186.815.264,1.226.264,1.226s-.109-.411-.3-1.219c-.093-.4-.31-.877-.512-1.452-.1-.295-.279-.582-.427-.9a7.515,7.515,0,0,0-.551-.994c-1.622-2.818-5.24-6.163-10.666-9.028a74.85,74.85,0,0,0-9.315-4.122l-11.349-4.067-27.774-10h0l-6.839-1.684h-3.1v-.109L156,309.8l.116.109a55.231,55.231,0,0,0-11.085-1.428,79.341,79.341,0,0,0-11.776.4,102.531,102.531,0,0,0-24.467,5.775h.054l-.955.776.07-.14c-.132,4.075-.1,8.244.171,12.42a60.346,60.346,0,0,0,.73,6.319,26.566,26.566,0,0,0,.776,3.1,8.258,8.258,0,0,0,1.413,2.81l-.147-.07c13.7-.179,27.945-.388,42.6-.466h4.114a2.19,2.19,0,0,1,.7.109,4.661,4.661,0,0,1,.683.2c1.731.6,3.392,1.3,5.069,1.987,3.33,1.389,6.621,2.818,9.874,4.246q9.765,4.285,19.119,8.539l.21.093-.124.194L165.1,397.775l-.047-.248,23.163,16.208H188l19.026-26.858c5.6-7.964,10.65-14.749,14.376-20.532a64.941,64.941,0,0,0,4.463-7.933,25.615,25.615,0,0,0,2.073-6.4,17.923,17.923,0,0,0,.2-4.153C228.026,346.924,227.987,346.435,227.987,346.435Z" transform="translate(-53.581 -205.718)" fill="#455a64"/>
    <path id="Path_4029" data-name="Path 4029" d="M231.446,361.386a20.965,20.965,0,0,1-2.22.4,27.4,27.4,0,0,0-9.982,3.959,16.111,16.111,0,0,1-1.894,1.226,8.339,8.339,0,0,1,1.731-1.459,22.335,22.335,0,0,1,4.813-2.6,22.822,22.822,0,0,1,5.294-1.374,9.432,9.432,0,0,1,2.259-.147Z" transform="translate(-78.177 -217.626)" fill="#455a64"/>
    <path id="Path_4030" data-name="Path 4030" d="M227.192,269.8v2.461l-6,.559-.342-1.257,1.615-3.749Z" transform="translate(-78.96 -196.691)" fill="#4807e6"/>
    <path id="Path_4031" data-name="Path 4031" d="M218.941,272.541l-7.747,15.509,1.716,27.836-3.889,6.07-4.091-7,.706-26.485L217.7,271.4Z" transform="translate(-75.398 -197.494)" fill="#4807e6"/>
    <path id="Path_4032" data-name="Path 4032" d="M199.006,238.122s-10.929-4.145-21.494-4.836-23.629,6.4-29.87,9.167-30.1,26.392-35.264,34.248c-2.957,4.518-6.9,14.749-6.9,14.749-.668,3.571,1.824,7.048,1.824,7.048l48.041.357h9.012l3.811-8.143s7.273-.52,9.354-4.5,9.7-9.874,9.7-9.874l8.678-14.36,5.713,1.211,3.167-24.4Z" transform="translate(-53.118 -188.955)" fill="#e0e0e0"/>
    <path id="Path_4033" data-name="Path 4033" d="M179.012,253.6a3.782,3.782,0,0,1-.217.838c-.179.621-.4,1.366-.675,2.251a74.05,74.05,0,0,0-1.754,7.522,71.409,71.409,0,0,0-.908,7.677c-.047.916-.093,1.7-.124,2.329a4.058,4.058,0,0,1-.085.862,3.329,3.329,0,0,1-.078-.862v-2.329a54.175,54.175,0,0,1,.776-7.762,55.843,55.843,0,0,1,1.878-7.537c.31-.947.59-1.7.776-2.212A3.787,3.787,0,0,1,179.012,253.6Z" transform="translate(-68.738 -193.511)" fill="#263238"/>
    <path id="Path_4034" data-name="Path 4034" d="M203.775,375.507s3.291,3.835,4.308,5.224c.916,1.242,1.824,5.791,2.173,10.231a1.6,1.6,0,0,1-2.088,1.669,1.343,1.343,0,0,1-.846-1.04c-.706-3.214-.893-4.58-.893-4.58-.093-1.553-.256-1.335-.3-.287s.776,6.846.776,6.846,2.22,7.91,1.622,8.795a1.444,1.444,0,0,1-2.259.1c-.3-.411-2.8-6.986-2.8-6.986l-.66-3.6s1.289,11.38.567,12.272a1.234,1.234,0,0,1-1.995.093c-.5-.45-1.017-5.48-1.017-5.48l-1.172-6.714.21,12.8s-.132,1.211-1.087,1.257-1.552-1.358-1.552-1.358l-1.374-13.2s.442,7.335-.054,7.724c-.66.512-1.257.342-1.475-.225a72.241,72.241,0,0,1-1.087-7.762l-.605-12.56-.442-4.153,10.992-3.936Z" transform="translate(-72.442 -219.7)" fill="#ffbf9d"/>
    <g id="Group_16203" data-name="Group 16203" transform="translate(100.33 77.368)" opacity="0.3">
      <path id="Path_4035" data-name="Path 4035" d="M174.5,275.86a176.1,176.1,0,0,0-7.188,32.47,74.115,74.115,0,0,0,1.366,11.884c1.265,6.28,11.566,33.51,11.566,33.51l7.056.613-5.946-48.375,5.946-22.612Z" transform="translate(-167.31 -275.86)"/>
    </g>
    <path id="Path_4036" data-name="Path 4036" d="M206.7,249.29c4.836,1.49,5.744,11.294,4.7,14.089-3.33,8.966-13.972,17.388-13.817,16.9l-6.916,27.51,9.8,37.259-15.851,5.674s-14.461-38.253-14.749-44.246,4.021-21.61,4.657-30.949c.411-6,3.454-18.172,10.867-25.336" transform="translate(-67.551 -192.546)" fill="#e0e0e0"/>
    <path id="Path_4037" data-name="Path 4037" d="M185.379,250.132s-.116.14-.357.4-.613.644-1.071,1.172a34.157,34.157,0,0,0-3.478,4.991,45.8,45.8,0,0,0-3.8,8.872,47.635,47.635,0,0,0-1.467,5.868c-.186,1.056-.357,2.142-.458,3.268s-.171,2.329-.334,3.485c-.559,4.751-1.6,9.9-2.647,15.439-.512,2.763-1.056,5.635-1.444,8.608a22.651,22.651,0,0,0-.21,4.533l.163,1.133.264,1.133c.163.776.38,1.552.6,2.329.846,3.058,1.855,6.163,2.911,9.315s2.173,6.388,3.33,9.672c2.329,6.559,4.8,13.344,7.405,20.283l-.256-.116,7.367-2.639,8.484-3.035-.124.241c-3.485-13.25-6.784-25.81-9.788-37.259v-.093c2.569-10.153,4.906-19.406,6.947-27.5l.287.078a.132.132,0,0,0-.14-.171h.047l.109-.062.217-.147.435-.326.838-.675c.543-.466,1.071-.931,1.552-1.4,1.025-.939,1.987-1.9,2.888-2.864a46.638,46.638,0,0,0,4.657-5.791,25.382,25.382,0,0,0,2.989-5.729,14.477,14.477,0,0,0,.14-5.395,13.508,13.508,0,0,0-2.67-6.986,5.774,5.774,0,0,0-2.142-1.49s.217.078.629.248a2.917,2.917,0,0,1,.714.427,4.386,4.386,0,0,1,.862.776,12.986,12.986,0,0,1,2.771,6.986,19.642,19.642,0,0,1,.2,2.608,10.635,10.635,0,0,1-.31,2.872,25.159,25.159,0,0,1-2.989,5.8,46.905,46.905,0,0,1-4.657,5.845c-.908.97-1.871,1.941-2.9,2.888-.512.481-1.04.955-1.552,1.421-.272.225-.551.458-.838.683l-.442.334-.233.155-.124.078H197.6a.171.171,0,0,1-.186-.21l.295.078-6.885,27.518v-.093l9.819,37.259.047.179-.171.062-8.484,3.035-7.374,2.639-.186.07-.07-.186c-2.608-6.947-5.077-13.739-7.4-20.3-1.149-3.283-2.274-6.513-3.322-9.68s-2.049-6.287-2.9-9.361c-.217-.776-.427-1.552-.59-2.329-.093-.388-.179-.776-.264-1.149s-.116-.776-.171-1.18a22.557,22.557,0,0,1,.225-4.6c.4-3,.939-5.861,1.467-8.632,1.063-5.542,2.119-10.673,2.694-15.416.163-1.18.225-2.329.342-3.47s.287-2.236.481-3.291a47.422,47.422,0,0,1,1.5-5.884,44.54,44.54,0,0,1,3.881-8.88A31.7,31.7,0,0,1,183.9,251.6C184.843,250.613,185.379,250.132,185.379,250.132Z" transform="translate(-67.521 -192.542)" fill="#263238"/>
    <path id="Path_4038" data-name="Path 4038" d="M222.983,253.5a9,9,0,0,1,0-2.065,48.443,48.443,0,0,1,.481-4.952,46.433,46.433,0,0,1,.994-4.875,8.539,8.539,0,0,1,.644-1.964,12.659,12.659,0,0,1-.365,2.026c-.256,1.242-.582,2.965-.869,4.875s-.474,3.648-.6,4.914A11.41,11.41,0,0,1,222.983,253.5Z" transform="translate(-79.424 -190.387)" fill="#263238"/>
    <g id="Group_16204" data-name="Group 16204" transform="translate(142.125 49.811)" opacity="0.3">
      <path id="Path_4039" data-name="Path 4039" d="M224.341,240.375c-.163-.07-.334.093-.443.241a13.974,13.974,0,0,0-2.4,3.959c-.862,2.577.054,5.434.838,8.073a21.478,21.478,0,0,1,.776,7.762l-.194.908a7.863,7.863,0,0,0,.668-5.3,52.93,52.93,0,0,1-.947-5.372c-.179-3.33,1.164-6.528,1.832-9.788C224.512,240.7,224.519,240.445,224.341,240.375Z" transform="translate(-221.152 -240.359)"/>
    </g>
    <rect id="Rectangle_2440" data-name="Rectangle 2440" width="4.945" height="35.381" transform="translate(86.211 122.763)" fill="#e0e0e0"/>
    <path id="Path_4040" data-name="Path 4040" d="M57.953,301.812h0a4.658,4.658,0,0,0,5.558,2.67,69.372,69.372,0,0,1,35.459-.365c16.355,4.06,22.325,12.87,24.545,18.412a7.2,7.2,0,0,0,6.7,4.463h.668a4.657,4.657,0,0,0,4.525-5.612c-1.692-7.685-11.915-21.036-30.188-25.973-21.991-5.946-37.259-1.987-44.362.225a4.657,4.657,0,0,0-2.9,6.179Z" transform="translate(-42.434 -202.166)" fill="#455a64"/>
    <path id="Path_4041" data-name="Path 4041" d="M57.937,301.764s-.07-.147-.179-.45a4.627,4.627,0,0,1,2.678-5.69,70.194,70.194,0,0,1,19.6-3.509,78.3,78.3,0,0,1,13.755.722c1.226.194,2.476.373,3.734.59l3.827.776,3.881.962c1.289.419,2.631.776,3.936,1.25a40.072,40.072,0,0,1,3.928,1.6c.644.311,1.312.574,1.948.924l1.925,1.032a49,49,0,0,1,7.335,5.108,43.27,43.27,0,0,1,6.388,6.7l.714.939.66.994c.21.326.442.652.644.994l.59,1.04a22.021,22.021,0,0,1,1.933,4.417c.1.4.217.776.318,1.18a5.1,5.1,0,0,1,.085,1.242,4.82,4.82,0,0,1-4.937,4.533,7.762,7.762,0,0,1-4.549-1.172,7.343,7.343,0,0,1-2.926-3.578,23.289,23.289,0,0,0-2.065-3.951c-.38-.637-.838-1.211-1.265-1.8a15.22,15.22,0,0,0-1.4-1.669,30.885,30.885,0,0,0-6.536-5.387,42.614,42.614,0,0,0-7.258-3.547,57.265,57.265,0,0,0-7.335-2.142,70.423,70.423,0,0,0-13.584-1.762,67.726,67.726,0,0,0-19.67,2.228,6.781,6.781,0,0,1-1.646.326,4.658,4.658,0,0,1-3.454-1.32,4.246,4.246,0,0,1-1.032-1.552A5.279,5.279,0,0,0,59.07,303.3,4.657,4.657,0,0,0,61,304.372a4.96,4.96,0,0,0,1.428.147,7.208,7.208,0,0,0,1.615-.334A66.383,66.383,0,0,1,83.8,301.857a69.14,69.14,0,0,1,13.67,1.708,58.226,58.226,0,0,1,7.382,2.135,42.564,42.564,0,0,1,7.335,3.571,31.094,31.094,0,0,1,6.621,5.434c.512.52.947,1.118,1.428,1.684a13.808,13.808,0,0,1,1.281,1.832,22.922,22.922,0,0,1,2.1,4.013,6.986,6.986,0,0,0,2.779,3.392,7.405,7.405,0,0,0,4.331,1.11,4.417,4.417,0,0,0,4.533-4.161,4.711,4.711,0,0,0-.078-1.141c-.093-.38-.21-.776-.311-1.141a21.813,21.813,0,0,0-1.894-4.339l-.567-1.04c-.2-.334-.427-.66-.644-.986l-.675-.955-.706-.931a43.167,43.167,0,0,0-6.326-6.637,48.6,48.6,0,0,0-7.273-5.069l-1.9-1.032c-.629-.349-1.3-.605-1.933-.916-1.281-.629-2.6-1.094-3.881-1.591s-2.624-.838-3.881-1.25l-3.881-.97L97.5,293.8c-1.257-.225-2.5-.4-3.718-.605a79.359,79.359,0,0,0-13.7-.776,71.29,71.29,0,0,0-19.546,3.369,4.44,4.44,0,0,0-2.274,1.987,4.533,4.533,0,0,0-.6,2.158,5.255,5.255,0,0,0,.272,1.832Z" transform="translate(-42.418 -202.118)" fill="#263238"/>
    <path id="Path_4042" data-name="Path 4042" d="M66.338,301.069a3.741,3.741,0,1,1-1.1-2.653A3.749,3.749,0,0,1,66.338,301.069Z" transform="translate(-42.708 -203.294)" fill="#fff"/>
  </g>
  <g id="freepik--Desk--inject-2" transform="translate(153.346 116.553)">
    <path id="Path_4043" data-name="Path 4043" d="M355,269.85h17.683l-1.382,9.726s-1.149,4.782-3.881,4.782h-7.661a8.2,8.2,0,0,1-3.726-5.24Z" transform="translate(-243.486 -204.212)" fill="#455a64"/>
    <path id="Path_4044" data-name="Path 4044" d="M355,269.834a2.152,2.152,0,0,1,.054.31,7.349,7.349,0,0,0,.124.862c.1.776.248,1.871.435,3.237s.4,3.058.652,4.96a7.949,7.949,0,0,0,3.656,5.022h7.685a2.274,2.274,0,0,0,1.421-.605,6.939,6.939,0,0,0,1.778-2.81,12.322,12.322,0,0,0,.4-1.25h0c.474-3.439.924-6.707,1.335-9.726l.14.163-12.691-.07-3.656-.039H355a1.311,1.311,0,0,1,.318,0h.955l3.625-.039,12.785-.07h.155v.155c-.411,3.02-.854,6.3-1.312,9.726h0a10.81,10.81,0,0,1-.411,1.289,7.32,7.32,0,0,1-1.871,2.934,2.538,2.538,0,0,1-1.6.668h-7.809a8.151,8.151,0,0,1-3.741-5.224c-.256-1.948-.427-3.648-.59-5.046s-.272-2.461-.349-3.237l-.093-.846A1.552,1.552,0,0,1,355,269.834Z" transform="translate(-243.486 -204.197)" fill="#263238"/>
    <path id="Path_4045" data-name="Path 4045" d="M375.441,275.688l.264-.062h.078a4.734,4.734,0,0,1,.574,0h.07l.3.078.248.078c.116.039,0,0-.047,0l.163.078a5.158,5.158,0,0,1,.489.3c.1.07,0,0-.039,0l.1.085a2.864,2.864,0,0,1,.217.217c.054.062.163.21.062.062.062.085.116.171.171.256a2.371,2.371,0,0,1,.124.241c.039.078,0,0,0-.047a1.109,1.109,0,0,1,.062.171,2.218,2.218,0,0,1,.085.3c0,.039.054.295.039.171s0,.132,0,.171a2.173,2.173,0,0,1,0,.318v.186h0a1.57,1.57,0,0,1-.039.171,1.473,1.473,0,0,1-.07.264c0,.07-.116.31,0,.124a4.22,4.22,0,0,1-.287.52l-.078.109s.109-.124,0-.039a2.539,2.539,0,0,0-.248.256c-.085.085-.225.179-.132.116s-.116.07-.148.085l-.233.132-.116.062c.132-.07.062,0,0,0s-.4.109-.605.163.054,0,.07,0h-.955l-.342-.109h0c.147.062-.116-.062-.116-.062a1.066,1.066,0,0,0-1.079,1.84,4.572,4.572,0,0,0,5.985-1.63,4.743,4.743,0,0,0,.5-3.361,4.331,4.331,0,0,0-1.941-2.7,4.6,4.6,0,0,0-3.633-.551,1.067,1.067,0,0,0,.567,2.057Z" transform="translate(-247.625 -205.036)" fill="#455a64"/>
    <path id="Path_4046" data-name="Path 4046" d="M375.392,275.545a.668.668,0,0,1-.357.062,1.11,1.11,0,0,1-.9-.543,1.125,1.125,0,0,1,.4-1.552,3.022,3.022,0,0,1,1.032-.264,4.733,4.733,0,0,1,1.188,0,4.658,4.658,0,0,1,2.43,1.149,4.347,4.347,0,0,1,1.428,2.725,4.774,4.774,0,0,1-.776,3.315,4.534,4.534,0,0,1-3.1,1.863,4.96,4.96,0,0,1-1.661-.047,6.527,6.527,0,0,1-.776-.233l-.373-.171a1.039,1.039,0,0,1-.357-.264,1.281,1.281,0,0,1,0-1.607,1.257,1.257,0,0,1,1.552-.248l-.2.124a.147.147,0,0,1,.124-.14h.132c0-.085.109.217-.062.248h-.147v-.039c-.078-.31.217-.225.132-.233h.047l.109.039a3.345,3.345,0,0,0,.442.109h0l.078.039c.078.039.047,0,.039.132s-.109.109-.116.109h-.186s-.078-.039-.039-.171.1-.062.116-.07h.349a4.228,4.228,0,0,0,.442,0v.264h-.116a.132.132,0,0,1-.093-.039.124.124,0,0,1,0-.147c0-.054,0-.039,0-.047l.062-.039h.124l.225-.062.233-.062h.1c-.054-.054,0,.264.078.225H377l-.124-.233.3-.163.14-.085h0a.155.155,0,0,1,.085,0,.2.2,0,0,1,.07.039.14.14,0,0,1,0,.179h-.047a.109.109,0,0,1-.078,0,.14.14,0,0,1-.1-.078c-.047-.07.047-.171,0-.147h0a1.663,1.663,0,0,0,.248-.217l.109-.116h0s.132,0,.163.085,0,.062,0,.078h0l-.047.054-.2-.147c.14-.194.241-.4.357-.6l.217.1v.039H378a.116.116,0,0,1-.109-.124h0v-.085a1.138,1.138,0,0,0,.054-.147,1.446,1.446,0,0,1,.078-.3v-.078h0l.047-.07a.109.109,0,0,1,.109,0h.047a.179.179,0,0,1,0,.093h0v.078h0c.078.085-.326.047-.217,0v-.07a.22.22,0,0,1,0-.07v-.295a1.749,1.749,0,0,0,0-.287v-.085a.132.132,0,0,1,.054-.093.093.093,0,0,1,.109,0,.062.062,0,0,1,.039.039v.039h0v.047h0a.107.107,0,0,1,0,.047l-.062.039a.109.109,0,0,1-.124-.054l-.039-.171a4.351,4.351,0,0,0-.147-.52l.186-.07v.039h0a.085.085,0,0,1-.078.1h-.085a.114.114,0,0,0-.054-.093l-.078-.163-.186-.287.155-.1v.039h0a.086.086,0,0,1,0,.085.093.093,0,0,1-.155,0h0l-.054-.07a.885.885,0,0,0-.116-.124l-.225-.217.109-.124h.047c-.186.256-.078.062-.116.116h0l-.1-.062-.194-.124a2.33,2.33,0,0,0-.357-.2l.062-.132h.109s.039.093,0,.109h.241l-.124-.047-.233-.07-.217-.054h-.1c.047,0-.093.054,0-.109h.085v.109h-.706v-.047h.116v.039H375.7a1.552,1.552,0,0,1-.295.039,1.017,1.017,0,0,1,.287-.093h.66v.109h-.085c.093-.171-.054-.093,0-.109h.124l.233.047.241.07.124.039h0c-.047.186-.047.116-.054.124h-.078l.062-.132a2.918,2.918,0,0,1,.373.2l.2.116.109.062h0l-.039.062h0l-.054-.047.109-.124a3.04,3.04,0,0,1,.241.217c0,.047.085.078.132.132l.054.07h-.054v-.039l.155-.1c.062.093.132.186.194.295l.085.163s.054.047,0,.085l-.054.047a.1.1,0,0,0-.062,0h-.039v-.054l.186-.07a4.133,4.133,0,0,1,.171.551v.124h-.1a.07.07,0,0,0-.054,0h.023v.365a1.386,1.386,0,0,1,0,.31.289.289,0,0,1,0,.085h-.225v-.07h.178v.078a1.352,1.352,0,0,1-.085.326.77.77,0,0,1-.054.163v.07c-.3-.124-.194-.093-.2-.109v-.039l.217.1c-.124.21-.225.435-.373.644l-.2-.147.054-.062h.047a.075.075,0,0,1,.07.054v.039s.047.062.039.047h0l-.116.124a2.468,2.468,0,0,1-.256.233h0c-.054-.047-.054-.085-.07-.078s0,0,0-.039l-.039-.07h0s.039.047,0,.054,0,.07,0,.07h0a.078.078,0,0,0,.047.078h-.039l-.147.093-.311.171-.124-.233h.147c.116,0,.14.287.078.225h-.039l-.124.047-.233.062-.241.062h-.116s0,.062-.047-.116v-.14h.109v.264a3.177,3.177,0,0,1-.474,0,1.273,1.273,0,0,1-.241,0h-.085v-.248h.085v.116h0v.054a.125.125,0,0,1,0,.07h0a4.64,4.64,0,0,1-.473-.116l-.116-.039h-.07v-.047a.536.536,0,0,0,0-.078c.1-.2.047-.109.062-.132h.047s0,.093-.039.109l-.062.109h-.054a.155.155,0,0,0,.085,0,.147.147,0,0,0,.1-.078v-.039H375.1l-.093.132a.978.978,0,0,0-1.172.186.993.993,0,0,0,0,1.219,1.846,1.846,0,0,0,.613.349,4.722,4.722,0,0,0,.737.21,4.527,4.527,0,0,0,1.552.054,4.215,4.215,0,0,0,2.919-1.739,4.464,4.464,0,0,0,.776-3.1,4.107,4.107,0,0,0-1.32-2.577,4.471,4.471,0,0,0-2.329-1.126,4,4,0,0,0-2.1.171,1.064,1.064,0,0,0-.489.652.917.917,0,0,0,.109.683,1.048,1.048,0,0,0,.776.543A2.088,2.088,0,0,0,375.392,275.545Z" transform="translate(-247.577 -204.893)" fill="#263238"/>
    <path id="Path_4047" data-name="Path 4047" d="M369.646,260.224a4.142,4.142,0,0,0,.551-.637,2.833,2.833,0,0,0,.342-2.173,2.438,2.438,0,0,0-.831-1.273c-.427-.373-.97-.668-1.475-1.11a2.911,2.911,0,0,1-.637-.815,1.553,1.553,0,0,1-.14-1.079,2.066,2.066,0,0,1,.574-.97c.256-.272.543-.5.776-.776a2.328,2.328,0,0,0,.605-.846,1.645,1.645,0,0,0,0-.986,4.332,4.332,0,0,0-1.025-1.677,5.256,5.256,0,0,1-1.048-1.552,3.314,3.314,0,0,1-.171-1.622,3.47,3.47,0,0,1,1.079-2.057,2.839,2.839,0,0,1,.52-.365l.2-.085a7.451,7.451,0,0,0-.66.52,3.462,3.462,0,0,0-.97,2.01,3.182,3.182,0,0,0,.186,1.552,5.223,5.223,0,0,0,1.032,1.467,4.455,4.455,0,0,1,1.087,1.762,1.863,1.863,0,0,1,0,1.126,2.547,2.547,0,0,1-.66.947c-.528.528-1.157.962-1.312,1.615a1.809,1.809,0,0,0,.7,1.677c.466.419,1.009.722,1.452,1.118a2.772,2.772,0,0,1,.559.652,2.554,2.554,0,0,1,.3.73,2.81,2.81,0,0,1-.427,2.267A1.756,1.756,0,0,1,369.646,260.224Z" transform="translate(-246.201 -198.025)" fill="#263238"/>
    <path id="Path_4048" data-name="Path 4048" d="M365.27,260.224a4.426,4.426,0,0,0,.543-.637,2.763,2.763,0,0,0,.342-2.173,2.328,2.328,0,0,0-.831-1.273c-.427-.373-.97-.668-1.467-1.11a2.779,2.779,0,0,1-.637-.815,1.553,1.553,0,0,1-.147-1.079,2.205,2.205,0,0,1,.574-.97c.264-.272.543-.5.776-.776a2.413,2.413,0,0,0,.6-.846,1.552,1.552,0,0,0,0-.986A4.331,4.331,0,0,0,364,247.882a5.434,5.434,0,0,1-1.056-1.552,3.314,3.314,0,0,1-.171-1.622,3.431,3.431,0,0,1,1.087-2.057,2.4,2.4,0,0,1,.52-.365.668.668,0,0,1,.2-.085,7.433,7.433,0,0,0-.66.52,3.508,3.508,0,0,0-.978,2.01,3.1,3.1,0,0,0,.194,1.552,5.222,5.222,0,0,0,1.032,1.467,4.549,4.549,0,0,1,1.087,1.762,1.864,1.864,0,0,1,0,1.126,2.64,2.64,0,0,1-.66.947c-.528.528-1.164.963-1.32,1.615a1.824,1.824,0,0,0,.7,1.677c.466.419,1.017.722,1.452,1.118a2.81,2.81,0,0,1,.567.652,3.1,3.1,0,0,1,.3.73,2.872,2.872,0,0,1-.427,2.267A1.824,1.824,0,0,1,365.27,260.224Z" transform="translate(-245.217 -198.025)" fill="#263238"/>
    <rect id="Rectangle_2441" data-name="Rectangle 2441" width="2.236" height="33.821" transform="translate(143.263 16.972) rotate(-39.95)" fill="#263238"/>
    <rect id="Rectangle_2442" data-name="Rectangle 2442" width="2.236" height="33.821" transform="translate(145.795 13.334) rotate(-39.95)" fill="#263238"/>
    <rect id="Rectangle_2443" data-name="Rectangle 2443" width="2.236" height="40.667" transform="translate(165.976 41.271) rotate(32.26)" fill="#263238"/>
    <rect id="Rectangle_2444" data-name="Rectangle 2444" width="2.236" height="39.875" transform="translate(170.871 42.222) rotate(32.26)" fill="#263238"/>
    <path id="Path_4049" data-name="Path 4049" d="M426.6,234.191l-3.408,4.611a2.857,2.857,0,0,0,.334,3.78h0a2.872,2.872,0,0,0,3.252.474l4.588-2.329a2.864,2.864,0,0,0,1.552-2.049l.047-.279a2.856,2.856,0,0,0-1.048-2.748l-2.329-1.855a2.065,2.065,0,0,0-2.989.4Z" transform="translate(-258.618 -196.04)" fill="#263238"/>
    <path id="Path_4050" data-name="Path 4050" d="M426.539,234.174a.906.906,0,0,1,.179-.264,1.972,1.972,0,0,1,.776-.528,2.08,2.08,0,0,1,1.452,0,2.43,2.43,0,0,1,.776.458l.776.605.869.668a6.942,6.942,0,0,1,.931.776,3.027,3.027,0,0,1,.737,2.577,3.105,3.105,0,0,1-1.653,2.445l-2.779,1.4-1.4.714a3.882,3.882,0,0,1-1.506.52,3.043,3.043,0,0,1-3.214-3.835,3.167,3.167,0,0,1,.574-1.1l.66-.869,2.018-2.624a8.167,8.167,0,0,1,.776-.924,6.6,6.6,0,0,1-.652,1.017l-1.917,2.7A6.512,6.512,0,0,0,422.8,239.8a2.725,2.725,0,0,0,.473,2.329,2.694,2.694,0,0,0,2.375,1.025,3.523,3.523,0,0,0,1.366-.481l1.4-.714,2.771-1.4a2.973,2.973,0,0,0,.854-4.448,7.469,7.469,0,0,0-.877-.776c-.295-.241-.574-.474-.854-.691l-.776-.629a2.42,2.42,0,0,0-.714-.45,2.08,2.08,0,0,0-1.335,0A3,3,0,0,0,426.539,234.174Z" transform="translate(-258.561 -196.023)" fill="#455a64"/>
    <path id="Path_4051" data-name="Path 4051" d="M383.29,287.12s2.655-5.635,13.08-5.62h4.8s9.369,2.018,10.495,5.635Z" transform="translate(-249.816 -206.819)" fill="#263238"/>
    <path id="Path_4052" data-name="Path 4052" d="M391.618,198.588l2.158,8.539a.512.512,0,0,0,.893.2l6.435-6.59a.512.512,0,0,0-.311-.838l-8.6-1.9a.5.5,0,0,0-.574.59Z" transform="translate(-251.677 -188.133)" fill="#263238"/>
    <path id="Path_4053" data-name="Path 4053" d="M391.606,198.554a.3.3,0,0,1-.047-.21.551.551,0,0,1,.411-.481,1.181,1.181,0,0,1,.466,0l.52.1,1.273.256,3.377.706,2.034.435,1.094.233a.776.776,0,0,1,.6.4.714.714,0,0,1-.093.776h0l-2.864,2.942-3.578,3.648h0a.706.706,0,0,1-1.2-.194c-.1-.38-.171-.683-.256-1.009-.155-.644-.3-1.265-.45-1.847-.272-1.149-.52-2.166-.73-3.043s-.326-1.467-.45-1.995a2.792,2.792,0,0,1-.116-.73,4.053,4.053,0,0,1,.241.7c.147.52.334,1.172.551,1.964s.512,1.886.815,3.027l.489,1.832.256.97a.326.326,0,0,0,.551.085h0l3.563-3.664,2.872-2.934h0a.334.334,0,0,0-.279-.543l-1.087-.248-2.034-.466-3.361-.776-1.265-.311-.512-.124a.915.915,0,0,0-.4-.062.481.481,0,0,0-.373.357C391.6,198.477,391.622,198.554,391.606,198.554Z" transform="translate(-251.666 -188.099)" fill="#455a64"/>
    <path id="Path_4054" data-name="Path 4054" d="M377.607,222.722c4.262-5.705,6.676-11.512,6.272-17.45l-8-7.708c-7.762-2.585-18.436,5.558-18.436,5.558S360.087,217.482,377.607,222.722Z" transform="translate(-244.032 -187.924)" fill="#263238"/>
    <path id="Path_4055" data-name="Path 4055" d="M5.837,0h.342a5.837,5.837,0,0,1,5.837,5.837V16.4H0V5.83A5.83,5.83,0,0,1,5.837,0Z" transform="matrix(0.729, 0.684, -0.684, 0.729, 139.925, 0)" fill="#263238"/>
    <path id="Path_4056" data-name="Path 4056" d="M388.426,205.2a4.37,4.37,0,0,1-1.692-.279,9.789,9.789,0,0,1-3.594-2.026,9.9,9.9,0,0,1-2.468-3.322,4.432,4.432,0,0,1-.481-1.638,16.46,16.46,0,0,1,.776,1.514,11.1,11.1,0,0,0,2.468,3.144,11.4,11.4,0,0,0,3.423,2.065C387.8,205.009,388.434,205.126,388.426,205.2Z" transform="translate(-249.122 -188.119)" fill="#455a64"/>
    <path id="Path_4057" data-name="Path 4057" d="M430.894,237.792a.722.722,0,1,1-.722-.722.722.722,0,0,1,.722.722Z" transform="translate(-260.145 -196.877)" fill="#455a64"/>
    <path id="Path_4058" data-name="Path 4058" d="M396.454,205.592a.722.722,0,1,1-.722-.722A.722.722,0,0,1,396.454,205.592Z" transform="translate(-252.438 -189.672)" fill="#455a64"/>
    <path id="Path_4059" data-name="Path 4059" d="M399.984,201.982a.722.722,0,1,1-.722-.722.722.722,0,0,1,.722.722Z" transform="translate(-253.228 -188.864)" fill="#455a64"/>
    <path id="Path_4060" data-name="Path 4060" d="M427.124,241.172a.722.722,0,1,1-.722-.722A.722.722,0,0,1,427.124,241.172Z" transform="translate(-259.301 -197.634)" fill="#455a64"/>
    <path id="Path_4061" data-name="Path 4061" d="M354.776,304.862l-.217,125.246H237.751V304.52H230.26V437.07H362.05v-6.963l.217-125.246Z" transform="translate(-215.574 -211.97)" fill="#e0e0e0"/>
    <path id="Path_4062" data-name="Path 4062" d="M354.718,304.832h7.53c0,16.7-.054,64.505-.1,132.209v.155H230V304.25h7.894V430.039l-.186-.186,116.808.039-.147.147c.225-77.282.365-124.074.365-125.246,0,1.172,0,47.964-.062,125.246v.147h-.155l-116.808.039h-.186V304.452l.2.2h-7.491l.2-.2V437l-.194-.194,131.79.039-.155.155c.171-67.7.287-115.512.334-132.209l.039.039Z" transform="translate(-215.515 -211.91)" fill="#263238"/>
    <rect id="Rectangle_2445" data-name="Rectangle 2445" width="169.251" height="13.507" transform="translate(0 80.301)" fill="#ae7461"/>
    <path id="Path_4063" data-name="Path 4063" d="M253.95,288.42l-.435.1c-.279.054-.7.116-1.234.241-1.071.217-2.608.59-4.479,1.141s-4.083,1.3-6.52,2.166-5.108,1.847-7.972,2.725a48.483,48.483,0,0,1-8.236,1.785,28.8,28.8,0,0,1-6.831.054,20.778,20.778,0,0,1-4.525-1.032,12.585,12.585,0,0,1-1.172-.466c-.264-.109-.4-.179-.4-.179s.147.039.419.14.66.272,1.18.419a22.131,22.131,0,0,0,4.518.947,29.912,29.912,0,0,0,6.831-.093,50,50,0,0,0,8.189-1.8c2.857-.877,5.527-1.847,7.972-2.7s4.657-1.591,6.536-2.119a45.87,45.87,0,0,1,4.518-1.071c.536-.109.963-.155,1.242-.2S253.95,288.42,253.95,288.42Z" transform="translate(-211.521 -208.368)" fill="#6f4439"/>
    <path id="Path_4064" data-name="Path 4064" d="M350.567,301.941a1.744,1.744,0,0,1-.171-.186,7,7,0,0,0-.489-.543,9.594,9.594,0,0,0-2.243-1.708,12.7,12.7,0,0,0-4.215-1.413,18.125,18.125,0,0,0-5.892.147,60.878,60.878,0,0,0-6.986,1.793,37.53,37.53,0,0,1-8.1,1.708,16.238,16.238,0,0,1-4.479-.3,21.969,21.969,0,0,1-4.44-1.49c-2.911-1.281-5.721-3.02-8.826-4.277a37.189,37.189,0,0,0-18.591-1.972,65.408,65.408,0,0,0-14.912,3.982c-4.114,1.552-7.351,3.1-9.594,4.083l-2.585,1.172c-.59.272-.908.4-.908.4s.3-.163.885-.443l2.562-1.219c2.236-1.04,5.473-2.554,9.579-4.153A64.425,64.425,0,0,1,286.1,293.5a37.037,37.037,0,0,1,18.707,1.964c3.1,1.273,5.938,3.012,8.826,4.285a21.86,21.86,0,0,0,4.393,1.483,15.778,15.778,0,0,0,4.417.3,38.157,38.157,0,0,0,8.057-1.669,60.427,60.427,0,0,1,6.986-1.77,18.174,18.174,0,0,1,5.946-.116,12.807,12.807,0,0,1,4.238,1.459,9.46,9.46,0,0,1,2.228,1.754,6.607,6.607,0,0,1,.668.753Z" transform="translate(-221.812 -209.414)" fill="#6f4439"/>
    <path id="Path_4065" data-name="Path 4065" d="M417.137,293.317a37.471,37.471,0,0,1-5.5,1.677c-.869.2-1.824.411-2.857.559s-2.15.3-3.322.435a47.093,47.093,0,0,1-15.222-1.118c-1.141-.295-2.228-.559-3.214-.9s-1.917-.652-2.748-.97a36.822,36.822,0,0,1-5.2-2.468,2.181,2.181,0,0,1,.365.163l1.032.489c.442.225.994.489,1.646.776s1.382.613,2.22.9,1.739.644,2.74.939,2.08.59,3.214.877a48.126,48.126,0,0,0,15.121,1.087c1.164-.124,2.274-.217,3.307-.4s1.979-.342,2.849-.528,1.646-.4,2.329-.574,1.265-.342,1.731-.5l1.095-.342A2.2,2.2,0,0,1,417.137,293.317Z" transform="translate(-248.872 -208.84)" fill="#6f4439"/>
    <rect id="Rectangle_2446" data-name="Rectangle 2446" width="55.447" height="3.61" rx="1.805" transform="translate(17.644 76.901)" fill="#455a64"/>
    <path id="Path_4066" data-name="Path 4066" d="M317.468,226.3,304.489,272.95a1.9,1.9,0,0,1-2.329,1.32h0a1.9,1.9,0,0,1-1.32-2.329l12.986-46.691a1.894,1.894,0,0,1,2.329-1.32h0a1.9,1.9,0,0,1,1.312,2.367Z" transform="translate(-231.352 -193.922)" fill="#455a64"/>
    <path id="Path_4067" data-name="Path 4067" d="M304.076,227.2c-.078.085-3.71-3.315-8.112-7.576s-7.9-7.762-7.824-7.871,3.7,3.307,8.1,7.576S304.153,227.119,304.076,227.2Z" transform="translate(-228.525 -191.211)" fill="#263238"/>
    <path id="Path_4068" data-name="Path 4068" d="M296.985,235.148a8.763,8.763,0,0,1-1.3-.489l-3.454-1.452c-2.926-1.226-6.986-2.9-11.465-4.657s-8.608-3.283-11.581-4.37l-3.555-1.327a8.484,8.484,0,0,1-1.273-.512,7.763,7.763,0,0,1,1.327.365c.846.264,2.065.66,3.563,1.172,3,1.017,7.126,2.5,11.644,4.269s8.539,3.485,11.426,4.774c1.452.652,2.616,1.188,3.415,1.552A10.207,10.207,0,0,1,296.985,235.148Z" transform="translate(-223.204 -193.581)" fill="#263238"/>
    <path id="Path_4069" data-name="Path 4069" d="M303.631,245.9a12.241,12.241,0,0,1-3.2.07,12.759,12.759,0,0,1-3.183-.334,25.345,25.345,0,0,1,6.381.264Z" transform="translate(-230.563 -198.773)" fill="#263238"/>
  </g>
  <g id="freepik--Plant--inject-2" transform="translate(289.25 229.724)">
    <path id="Path_4070" data-name="Path 4070" d="M426.363,428.812s-3.221-22.193-2.957-35.1,0-27.44,0-27.44h1.49s-1.009,25.616.085,41.086,3.982,21.455,3.982,21.455h-2.585" transform="translate(-394.693 -338.958)" fill="#263238"/>
    <path id="Path_4071" data-name="Path 4071" d="M435.32,333.425a3.919,3.919,0,0,0-1.351-1.979,3.863,3.863,0,0,0-3.237,0c-4.494,1.591-8.477,9.967-10.293,14.376l5.962,20.1C437.176,355.96,439.039,342.849,435.32,333.425Z" transform="translate(-394.032 -331.085)" fill="#455a64"/>
    <path id="Path_4072" data-name="Path 4072" d="M435.337,332.6a1.084,1.084,0,0,1-.093.256c-.07.194-.171.442-.287.737-.264.629-.629,1.552-1.071,2.694-.877,2.282-1.995,5.434-3,9.066s-1.684,6.916-2.1,9.315c-.217,1.2-.373,2.181-.473,2.857-.054.318-.093.574-.132.776a1.16,1.16,0,0,1-.062.264,1.413,1.413,0,0,1,0-.272c0-.21.047-.466.078-.776.078-.683.21-1.669.4-2.88a85.588,85.588,0,0,1,2.057-9.307,84.592,84.592,0,0,1,3.1-9.066c.458-1.141.846-2.049,1.141-2.67.132-.287.241-.528.334-.714a.908.908,0,0,1,.1-.279Z" transform="translate(-395.749 -331.424)" fill="#263238"/>
    <path id="Path_4073" data-name="Path 4073" d="M422.052,373.746a18.2,18.2,0,0,1-9.2-15.292c-.217-4.456,1.157-8.834,2.709-13.025a1.669,1.669,0,0,1,.629-.939,1.607,1.607,0,0,1,1.552.233c4.06,2.329,6.528,6.73,7.832,11.217a22.511,22.511,0,0,1,.924,9.222,15.346,15.346,0,0,1-4.425,8.585" transform="translate(-392.33 -334.061)" fill="#455a64"/>
    <path id="Path_4074" data-name="Path 4074" d="M423.578,374.669a1.232,1.232,0,0,1,0-.272v-.776c0-.675,0-1.646-.085-2.841a76.981,76.981,0,0,0-1.04-9.315c-.613-3.6-1.366-6.823-1.925-9.152l-.66-2.763-.171-.776a1.128,1.128,0,0,1-.047-.264,1.086,1.086,0,0,1,.093.248c.054.2.124.442.217.776.179.644.435,1.552.737,2.74.6,2.329,1.382,5.55,2,9.16a69.772,69.772,0,0,1,.97,9.315v3.617a1.24,1.24,0,0,1-.093.3Z" transform="translate(-393.856 -334.984)" fill="#263238"/>
    <g id="Group_16205" data-name="Group 16205" transform="translate(20.501 10.325)" opacity="0.3">
      <path id="Path_4075" data-name="Path 4075" d="M422.052,373.746a18.2,18.2,0,0,1-9.2-15.292c-.217-4.456,1.157-8.834,2.709-13.025a1.669,1.669,0,0,1,.629-.939,1.607,1.607,0,0,1,1.552.233c4.06,2.329,6.528,6.73,7.832,11.217a22.511,22.511,0,0,1,.924,9.222,15.346,15.346,0,0,1-4.425,8.585" transform="translate(-412.831 -344.386)"/>
    </g>
    <path id="Path_4076" data-name="Path 4076" d="M432.84,425.855c5.5,1.211,10.029,5.092,15.346,6.986,3.509,1.25,7.483,1.692,10.285,4.145-.668-1.7-2.267-2.833-3.819-3.8a68.308,68.308,0,0,0-13.926-6.691c-2.492-.862-5.209-1.552-7.762-.869" transform="translate(-396.807 -352.178)" fill="#455a64"/>
    <path id="Path_4077" data-name="Path 4077" d="M416.525,430.171c-6.893-.116-14.151-5.985-21.005-6.334,7.172-2.329,17.458-.427,21.005,6.334" transform="translate(-388.456 -351.627)" fill="#455a64"/>
    <path id="Path_4078" data-name="Path 4078" d="M426.05,408.574a22.456,22.456,0,0,1,11.023-.776,66.6,66.6,0,0,1,10.759,2.919c-.357-2.391-2.29-4.184-4.114-5.775a28.275,28.275,0,0,0-4.316-3.322,9.618,9.618,0,0,0-5.178-1.459,8.143,8.143,0,0,0-5.721,2.88,9.509,9.509,0,0,0-2.453,5.5" transform="translate(-395.288 -346.541)" fill="#455a64"/>
    <path id="Path_4079" data-name="Path 4079" d="M403.039,400.212c-4.339-3.7-10.914-3.346-16.619-3.214a134.947,134.947,0,0,1,25.771,16.06C412.424,409.022,408.519,404.893,403.039,400.212Z" transform="translate(-386.42 -345.817)" fill="#455a64"/>
    <g id="Group_16206" data-name="Group 16206" transform="translate(0 51.107)" opacity="0.3">
      <path id="Path_4080" data-name="Path 4080" d="M403.039,400.212c-4.339-3.7-10.914-3.346-16.619-3.214a134.947,134.947,0,0,1,25.771,16.06C412.424,409.022,408.519,404.893,403.039,400.212Z" transform="translate(-386.42 -396.924)"/>
    </g>
    <path id="Path_4081" data-name="Path 4081" d="M428.563,389.436a48.912,48.912,0,0,1,6.668-3.881c2.29-1.032,4.417-2.686,6.621-3.881a72.569,72.569,0,0,0,7.964-5.62,20.654,20.654,0,0,1,8.725-4.161,17.077,17.077,0,0,0-7.941.458,51.067,51.067,0,0,0-7.467,2.9c-3.384,1.552-6.831,3.1-9.594,5.566s-5.271,4.914-4.976,8.616" transform="translate(-395.845 -340.156)" fill="#455a64"/>
    <path id="Path_4082" data-name="Path 4082" d="M446.407,430.76l-.217-.1-.6-.31c-.52-.272-1.265-.683-2.2-1.157-.466-.241-.978-.5-1.552-.776s-1.157-.543-1.793-.823a25.894,25.894,0,0,0-4.246-1.475,9.112,9.112,0,0,0-4.417-.116,13.075,13.075,0,0,0-1.878.559,9.393,9.393,0,0,0-1.506.776,9.518,9.518,0,0,0-1.9,1.552c-.4.427-.6.683-.613.675a.776.776,0,0,1,.124-.2,5.25,5.25,0,0,1,.419-.543,9.142,9.142,0,0,1,1.871-1.653,9.7,9.7,0,0,1,1.553-.815,13,13,0,0,1,1.9-.59,9.191,9.191,0,0,1,4.533.093,24.844,24.844,0,0,1,4.277,1.506c.636.287,1.234.567,1.785.846s1.071.536,1.552.776c.931.5,1.669.932,2.173,1.234l.574.349C446.345,430.706,446.415,430.752,446.407,430.76Z" transform="translate(-395.16 -352.216)" fill="#263238"/>
    <path id="Path_4083" data-name="Path 4083" d="M416,427.86a1.551,1.551,0,0,1,.435.132,9.124,9.124,0,0,1,1.118.489,13.545,13.545,0,0,1,3.3,2.329,13.383,13.383,0,0,1,2.461,3.19,10.256,10.256,0,0,1,.536,1.1,1.556,1.556,0,0,1,.14.427c-.039,0-.295-.567-.823-1.436a15.2,15.2,0,0,0-5.69-5.434A14.418,14.418,0,0,1,416,427.86Z" transform="translate(-393.038 -352.739)" fill="#263238"/>
    <path id="Path_4084" data-name="Path 4084" d="M396.31,400.71a1.416,1.416,0,0,1,.295.085l.831.295,1.3.481c.5.194,1.056.473,1.684.776a39.824,39.824,0,0,1,8.973,5.721,42.215,42.215,0,0,1,4.184,4.122,45.55,45.55,0,0,1,2.973,3.757c.776,1.118,1.382,2.049,1.793,2.686l.466.776a1.127,1.127,0,0,1,.155.264,1.44,1.44,0,0,1-.194-.241c-.117-.155-.3-.4-.512-.714-.435-.629-1.048-1.552-1.855-2.639s-1.809-2.329-3-3.71a44.616,44.616,0,0,0-4.176-4.083,42.064,42.064,0,0,0-8.888-5.8c-.613-.279-1.157-.567-1.661-.776l-1.289-.52-.776-.342A1.5,1.5,0,0,1,396.31,400.71Z" transform="translate(-388.633 -346.664)" fill="#263238"/>
    <path id="Path_4085" data-name="Path 4085" d="M436.135,405.856a2.33,2.33,0,0,1-.551-.07l-.637-.116c-.241-.047-.528-.047-.846-.078a8.626,8.626,0,0,0-4.735.931,8.765,8.765,0,0,0-2.158,1.6,10.135,10.135,0,0,0-1.382,1.715,13.6,13.6,0,0,0-.947,1.809,1.763,1.763,0,0,1,.14-.536,7.214,7.214,0,0,1,.66-1.366,8.736,8.736,0,0,1,1.374-1.778,8.218,8.218,0,0,1,2.2-1.661,8.429,8.429,0,0,1,4.867-.893c.318.047.613.062.854.124l.637.155A2.972,2.972,0,0,1,436.135,405.856Z" transform="translate(-395.026 -347.704)" fill="#263238"/>
    <path id="Path_4086" data-name="Path 4086" d="M442.964,378.28a1,1,0,0,1-.256.163l-.776.419c-.675.357-1.638.893-2.8,1.552a47.5,47.5,0,0,0-4,2.593,33.417,33.417,0,0,0-4.456,3.742,11.07,11.07,0,0,0-1.824,2.329c-.45.862-.885,1.7-1.281,2.507a45.685,45.685,0,0,0-1.91,4.362,26.885,26.885,0,0,0-.939,3.066,11.623,11.623,0,0,1-.264,1.149,2.259,2.259,0,0,1,0-.3,3.846,3.846,0,0,1,.14-.862,24.146,24.146,0,0,1,.862-3.1,41.517,41.517,0,0,1,1.878-4.4c.4-.776.823-1.653,1.273-2.523a11.379,11.379,0,0,1,1.855-2.414,32.077,32.077,0,0,1,4.5-3.749c1.475-1.04,2.864-1.886,4.044-2.569s2.158-1.18,2.841-1.514l.776-.38Z" transform="translate(-394.93 -341.645)" fill="#263238"/>
    <path id="Path_4087" data-name="Path 4087" d="M422.073,401.037a2.757,2.757,0,0,1-.132-.582c-.085-.419-.186-.955-.3-1.591a40.675,40.675,0,0,0-3.276-10.13l-.668-1.475a2.474,2.474,0,0,1-.225-.559,2.993,2.993,0,0,1,.31.512c.179.342.435.831.776,1.444a37.039,37.039,0,0,1,2.042,4.96,35.7,35.7,0,0,1,1.242,5.216c.109.683.186,1.226.225,1.615a3.056,3.056,0,0,1,.008.59Z" transform="translate(-393.368 -343.529)" fill="#263238"/>
    <path id="Path_4088" data-name="Path 4088" d="M417.314,379.274a18.678,18.678,0,0,0-2.243-7.444,24.545,24.545,0,0,0-16.65-12.42l15.416,22.969,1.995,4.106a11.861,11.861,0,0,0,1.483-7.211Z" transform="translate(-389.105 -337.423)" fill="#455a64"/>
    <rect id="Rectangle_2447" data-name="Rectangle 2447" width="43.415" height="7.693" transform="translate(10.72 81.874)" fill="#4807e6"/>
    <path id="Path_4089" data-name="Path 4089" d="M404.41,444.5l5.822,23.877h26.695l4.409-23.877Z" transform="translate(-390.445 -356.463)" fill="#4807e6"/>
    <path id="Path_4090" data-name="Path 4090" d="M443.521,446.435c0,.085-9.8.155-21.867.155s-21.874-.07-21.874-.155,9.788-.155,21.874-.155S443.521,446.35,443.521,446.435Z" transform="translate(-389.409 -356.861)" fill="#263238"/>
  </g>
</svg>
