<svg xmlns="http://www.w3.org/2000/svg" width="28" height="28" viewBox="0 0 28 28">
  <g id="List_-_Free_interface_icons-2" data-name="List - Free interface icons-2" transform="translate(-0.001 0.001)">
    <path id="Path_4189" data-name="Path 4189" d="M27.042,15.835a3.285,3.285,0,0,0-4.64,0L16.4,21.826a1.094,1.094,0,0,0-.274.457l-1.308,4.305a1.093,1.093,0,0,0,1.339,1.372l4.415-1.223a1.1,1.1,0,0,0,.481-.28l5.993-5.981a3.285,3.285,0,0,0,0-4.64ZM19.707,24.7l-2.221.615.65-2.14,4.052-4.043,1.547,1.547ZM25.5,18.928l-.212.211-1.547-1.547.211-.211A1.094,1.094,0,0,1,25.5,18.928Zm-12.97,7.977A1.094,1.094,0,0,1,11.431,28H4.376A4.38,4.38,0,0,1,0,23.624V4.374A4.38,4.38,0,0,1,4.376,0H17.824A4.38,4.38,0,0,1,22.2,4.374V12.8a1.094,1.094,0,0,1-2.188,0V4.374a2.19,2.19,0,0,0-2.188-2.187H4.376A2.19,2.19,0,0,0,2.189,4.374v19.25a2.19,2.19,0,0,0,2.188,2.187h7.055A1.094,1.094,0,0,1,12.525,26.905Zm5.3-18.758a1.094,1.094,0,0,1-1.094,1.094H13.51a1.094,1.094,0,1,1,0-2.187h3.227A1.094,1.094,0,0,1,17.83,8.147ZM11.236,5.891,8.683,8.981a1.91,1.91,0,0,1-1.353.7c-.042,0-.084,0-.126,0A1.911,1.911,0,0,1,5.889,9.16l-.03-.029-1.173-1.2A1.094,1.094,0,0,1,6.254,6.4l.933.957L9.549,4.5a1.094,1.094,0,0,1,1.687,1.393Zm5.5,10.077H13.51a1.094,1.094,0,1,1,0-2.187h3.227a1.094,1.094,0,1,1,0,2.187Zm-5.5-3.357L8.683,15.7a1.91,1.91,0,0,1-1.353.7c-.042,0-.084,0-.126,0a1.911,1.911,0,0,1-1.315-.525l-.027-.027-1.173-1.2a1.094,1.094,0,0,1,1.563-1.53l.934.954,2.363-2.861a1.094,1.094,0,0,1,1.687,1.393Zm0,6.617-2.553,3.09a1.91,1.91,0,0,1-1.353.7c-.042,0-.084,0-.126,0A1.911,1.911,0,0,1,5.889,22.5l-.027-.027-1.173-1.2a1.094,1.094,0,0,1,1.563-1.53l.934.954,2.363-2.861a1.094,1.094,0,0,1,1.687,1.393Zm0,0" fill="#121212"/>
  </g>
</svg>
