<svg xmlns="http://www.w3.org/2000/svg" width="73" height="56" viewBox="0 0 73 56">
  <g id="Group_10541" data-name="Group 10541" transform="translate(-925 -818)">
    <g id="Search_results_for_Google_-_Flaticon-2" data-name="Search results for Google - Flaticon-2" transform="translate(946.001 831)">
      <path id="Path_3226" data-name="Path 3226" d="M280.08,213.9H267.689a.988.988,0,0,0-.989.989v3.961a.988.988,0,0,0,.989.989h6.979a9.3,9.3,0,0,1-4.007,4.7l2.973,5.152a14.9,14.9,0,0,0,7.591-13.022,10.263,10.263,0,0,0-.169-1.945A1,1,0,0,0,280.08,213.9Z" transform="translate(-250.849 -201.353)" fill="#167ee6"/>
      <path id="Path_3227" data-name="Path 3227" d="M67.546,330.125a9.242,9.242,0,0,1-7.994-4.625L54.4,328.466a15.174,15.174,0,0,0,20.743,5.568v-.006l-2.973-5.152A9.164,9.164,0,0,1,67.546,330.125Z" transform="translate(-52.358 -305.694)" fill="#12b347"/>
      <path id="Path_3228" data-name="Path 3228" d="M264.091,382.558v-.007l-2.973-5.152a9.188,9.188,0,0,1-4.618,1.249v5.945A15.121,15.121,0,0,0,264.091,382.558Z" transform="translate(-241.313 -354.218)" fill="#0f993e"/>
      <path id="Path_3229" data-name="Path 3229" d="M28.945,145.484a9.188,9.188,0,0,1,1.249-4.618L25.042,137.9a15.1,15.1,0,0,0,0,15.168l5.152-2.966A9.123,9.123,0,0,1,28.945,145.484Z" transform="translate(-23.001 -130.296)" fill="#ffd500"/>
      <path id="Path_3230" data-name="Path 3230" d="M67.546,26.945a9.2,9.2,0,0,1,5.867,2.107.988.988,0,0,0,1.327-.059l2.8-2.8a1,1,0,0,0-.059-1.457A15.138,15.138,0,0,0,54.4,28.6l5.152,2.966A9.242,9.242,0,0,1,67.546,26.945Z" transform="translate(-52.358 -21)" fill="#ff4b26"/>
      <path id="Path_3231" data-name="Path 3231" d="M262.367,29.053a.988.988,0,0,0,1.327-.059l2.8-2.8a1,1,0,0,0-.059-1.457A15.093,15.093,0,0,0,256.5,21v5.945A9.168,9.168,0,0,1,262.367,29.053Z" transform="translate(-241.313 -21)" fill="#d93f21"/>
    </g>
  </g>
</svg>
