<svg xmlns="http://www.w3.org/2000/svg" version="1.1" xmlnsxlink="http://www.w3.org/1999/xlink" xmlnssvgjs="http://svgjs.com/svgjs" x="0" y="0" viewBox="0 0 236.911 236.911" style="enable-background:new 0 0 512 512" xml:space="preserve"><g><g><path d="M118.456,0C53.139,0,0,53.139,0,118.456s53.139,118.456,118.455,118.456s118.455-53.139,118.455-118.456&#10;&#9;&#9;S183.772,0,118.456,0z M118.456,221.911C61.411,221.911,15,175.501,15,118.456S61.411,15,118.456,15s103.455,46.41,103.455,103.456&#10;&#9;&#9;S175.5,221.911,118.456,221.911z" fill="currentColor" data-original="#000000"/><path d="M118.456,31.34c-48.035,0-87.115,39.08-87.115,87.115s39.08,87.115,87.115,87.115s87.115-39.08,87.115-87.115&#10;&#9;&#9;S166.491,31.34,118.456,31.34z M118.456,195.571c-42.521,0-77.115-34.594-77.115-77.115S75.934,41.34,118.456,41.34&#10;&#9;&#9;s77.115,34.594,77.115,77.115S160.977,195.571,118.456,195.571z" fill="currentColor" data-original="#000000"/><path d="M92.639,95.333c4.643,0,7.801,2.786,7.801,11.422h12.815c-0.465-15.229-7.522-22.75-20.615-22.75&#10;&#9;&#9;c-12.443,0-21.171,5.943-21.171,22.471v23.958c0,16.529,8.729,22.472,21.171,22.472c4.829,0,8.543-2.6,11.979-6.5l1.95,5.571h6.687&#10;&#9;&#9;v-34.358H91.433v10.586h9.007v4.085c0,5.758-2.971,9.286-7.801,9.286c-5.107,0-8.357-2.043-8.357-9.471v-27.3&#10;&#9;&#9;C84.282,97.377,87.532,95.333,92.639,95.333z" fill="currentColor" data-original="#000000"/><path d="M144.271,84.005c-12.443,0-21.171,5.943-21.171,22.471v23.958c0,16.529,8.729,22.472,21.171,22.472&#10;&#9;&#9;c12.444,0,21.172-5.943,21.172-22.472v-23.958C165.443,89.948,156.715,84.005,144.271,84.005z M152.628,132.106&#10;&#9;&#9;c0,7.429-3.25,9.471-8.357,9.471s-8.357-2.043-8.357-9.471v-27.3c0-7.429,3.25-9.472,8.357-9.472s8.357,2.043,8.357,9.472V132.106z&#10;&#9;&#9;" fill="currentColor" data-original="#000000"/></g><g></g><g></g><g></g><g></g><g></g><g></g><g></g><g></g><g></g><g></g><g></g><g></g><g></g><g></g><g></g></g></svg>