<svg xmlns="http://www.w3.org/2000/svg" width="28" height="28" viewBox="0 0 28 28">
  <g id="Teamwork_-_Free_business_icons-2" data-name="Teamwork - Free business icons-2" transform="translate(0 0)">
    <path id="Path_4191" data-name="Path 4191" d="M14,11.976a5.735,5.735,0,0,0,5.17-3.384,9.082,9.082,0,0,1,2.9,3.44,1.089,1.089,0,0,0,.978.628,1.053,1.053,0,0,0,.49-.122,1.164,1.164,0,0,0,.486-1.531,11.347,11.347,0,0,0-4.285-4.745c0-.091.006-.183.006-.275A5.875,5.875,0,0,0,14,0,5.876,5.876,0,0,0,8.258,5.988,5.875,5.875,0,0,0,14,11.976Zm0-9.695a3.637,3.637,0,0,1,3.555,3.707A3.637,3.637,0,0,1,14,9.694a3.637,3.637,0,0,1-3.555-3.707A3.637,3.637,0,0,1,14,2.281ZM5.742,14.6a5.555,5.555,0,0,0-.624.035,9.5,9.5,0,0,1,1.809-4.168,1.174,1.174,0,0,0-.177-1.6,1.064,1.064,0,0,0-1.537.184A11.857,11.857,0,0,0,2.82,15.434,6.044,6.044,0,0,0,0,20.586a5.875,5.875,0,0,0,5.742,5.988,5.875,5.875,0,0,0,5.742-5.988A5.876,5.876,0,0,0,5.742,14.6Zm0,9.695a3.71,3.71,0,0,1,0-7.413,3.71,3.71,0,0,1,0,7.413ZM28,20.587a6.2,6.2,0,0,1-.343,2.043,1.082,1.082,0,0,1-1.4.683,1.154,1.154,0,0,1-.655-1.461,3.84,3.84,0,0,0,.212-1.265,3.558,3.558,0,1,0-3.555,3.707,3.465,3.465,0,0,0,.548-.044,1.1,1.1,0,0,1,1.248.953,1.135,1.135,0,0,1-.914,1.3,5.531,5.531,0,0,1-3.054-.375A10.84,10.84,0,0,1,12.3,27.867a1.134,1.134,0,0,1-.917-1.3,1.1,1.1,0,0,1,1.246-.957A8.769,8.769,0,0,0,14,25.719,8.666,8.666,0,0,0,18.089,24.7a6.1,6.1,0,0,1-1.574-4.114A5.876,5.876,0,0,1,22.258,14.6,5.876,5.876,0,0,1,28,20.587Zm0,0" transform="translate(0 0)" fill="#121212"/>
  </g>
</svg>
