<svg xmlns="http://www.w3.org/2000/svg" width="28.641" height="28.641" viewBox="0 0 28.641 28.641">
  <g id="Search_results_for_Join_-_Flaticon-2" data-name="Search results for Join - Flaticon-2" transform="translate(0)">
    <path id="Path_3005" data-name="Path 3005" d="M36.706,3.429a11.271,11.271,0,0,1,11.874,0,3.384,3.384,0,1,0,.426-1.689,13.009,13.009,0,0,0-12.726,0,3.34,3.34,0,1,0,.426,1.689Zm0,0" transform="translate(-28.322)" fill="#fff"/>
    <path id="Path_3006" data-name="Path 3006" d="M202.713,244.356a3.356,3.356,0,1,0-3.356,3.356A3.36,3.36,0,0,0,202.713,244.356Zm0,0" transform="translate(-185.035 -227.519)" fill="#fff"/>
    <path id="Path_3007" data-name="Path 3007" d="M23.607,120a5.04,5.04,0,0,0-5.035,5.035v2.573a.839.839,0,0,0,.839.839H24.97a10.9,10.9,0,0,1-6.351,7.485,4.994,4.994,0,0,0-8.6,0,10.9,10.9,0,0,1-6.351-7.485H9.23a.839.839,0,0,0,.839-.839v-2.573a5.035,5.035,0,0,0-10.069,0v2.573a.839.839,0,0,0,.839.839H1.96a12.562,12.562,0,0,0,7.435,9.036,5.044,5.044,0,0,0-.108,1.033v2.573a.839.839,0,0,0,.839.839h8.391a.839.839,0,0,0,.839-.839v-2.573a5.044,5.044,0,0,0-.108-1.033,12.562,12.562,0,0,0,7.435-9.036H27.8a.839.839,0,0,0,.839-.839v-2.573A5.04,5.04,0,0,0,23.607,120Zm0,0" transform="translate(0 -113.287)" fill="#fff"/>
  </g>
</svg>
