<svg xmlns="http://www.w3.org/2000/svg" width="73" height="56" viewBox="0 0 73 56">
  <g id="Group_10540" data-name="Group 10540" transform="translate(-1038 -818)">
    <g id="Search_results_for_Linked_in_-_Flaticon-2" data-name="Search results for Linked in - Flaticon-2" transform="translate(1057 829)">
      <g id="Group_10161" data-name="Group 10161" transform="translate(0 0)">
        <ellipse id="Ellipse_205" data-name="Ellipse 205" cx="17.394" cy="17.394" rx="17.394" ry="17.394" transform="translate(0)" fill="#0177b5"/>
        <g id="Group_10160" data-name="Group 10160" transform="translate(8.393 7.432)">
          <path id="Path_3224" data-name="Path 3224" d="M46.462,35.331V42.5H42.3V35.811c0-1.68-.6-2.827-2.106-2.827a2.274,2.274,0,0,0-2.133,1.52,2.846,2.846,0,0,0-.138,1.013V42.5H33.77s.056-11.332,0-12.5h4.158v1.772c-.008.014-.02.028-.028.041h.028v-.041A4.128,4.128,0,0,1,41.676,29.7c2.735,0,4.786,1.787,4.786,5.627ZM29.421,23.969a2.167,2.167,0,1,0-.055,4.321h.027a2.167,2.167,0,1,0,.028-4.321ZM27.315,42.5h4.156V30H27.315Z" transform="translate(-27.068 -23.969)" fill="#f1f2f2"/>
        </g>
      </g>
    </g>
  </g>
</svg>
