<svg xmlns="http://www.w3.org/2000/svg" width="107" height="107" viewBox="0 0 107 107">
  <g id="Group_10023" data-name="Group 10023" transform="translate(-760 -4124)">
    <circle id="Ellipse_18" data-name="Ellipse 18" cx="53.5" cy="53.5" r="53.5" transform="translate(760 4124)" fill="#f4f7fa"/>
    <g id="Search_results_for_Read_and_write_-_Flaticon-2" data-name="Search results for Read and write - Flaticon-2" transform="translate(783 4154)">
      <path id="Path_3172" data-name="Path 3172" d="M130.587.986A38.6,38.6,0,0,0,112.5-4.66v36.93a42.678,42.678,0,0,1,18.087,5.023Zm0,0" transform="translate(-101.72 4.661)" fill="#4807e6"/>
      <path id="Path_3173" data-name="Path 3173" d="M356.837-4.668A38.366,38.366,0,0,0,338.75.976v36.31a42.677,42.677,0,0,1,18.087-5.023Zm0,0" transform="translate(-306.29 4.668)" fill="#4807e6"/>
      <path id="Path_3174" data-name="Path 3174" d="M23.351,65.933A38.772,38.772,0,0,0,8.983,63.092h-1.8V25.5H0V69.6H28.867v-.855a32.381,32.381,0,0,0-5.516-2.811Zm0,0" transform="translate(0 -22.609)" fill="#4807e6"/>
      <path id="Path_3175" data-name="Path 3175" d="M360.43,25.5V63.092h-1.8a38.773,38.773,0,0,0-14.368,2.841,32.383,32.383,0,0,0-5.516,2.811V69.6h28.867V25.5Zm0,0" transform="translate(-306.289 -22.609)" fill="#4807e6"/>
    </g>
  </g>
</svg>
