<svg xmlns="http://www.w3.org/2000/svg" width="107" height="107" viewBox="0 0 107 107">
  <g id="Group_10023" data-name="Group 10023" transform="translate(-760 -4124)">
    <circle id="Ellipse_18" data-name="Ellipse 18" cx="53.5" cy="53.5" r="53.5" transform="translate(760 4124)" fill="#f4f7fa"/>
    <g id="Search_results_for_Maths_-_Flaticon-2_1_" data-name="Search results for Maths - Flaticon-2 (1)" transform="translate(789 4153)">
      <path id="Path_3168" data-name="Path 3168" d="M0,5.452V23.169H23.167V0H5.45A5.451,5.451,0,0,0,0,5.452Zm7.5,4.77h2.726V7.5a1.363,1.363,0,1,1,2.726,0v2.726h2.726a1.363,1.363,0,0,1,0,2.726H12.946v2.726a1.363,1.363,0,1,1-2.726,0V12.948H7.495a1.363,1.363,0,0,1,0-2.726Zm0,0" transform="translate(0.001 -0.001)" fill="#4807e6"/>
      <path id="Path_3169" data-name="Path 3169" d="M287.939,0H270.222V23.167H293.39V5.45A5.451,5.451,0,0,0,287.939,0Zm-2.045,12.947h-8.177a1.363,1.363,0,0,1,0-2.726h8.177a1.363,1.363,0,0,1,0,2.726Zm0,0" transform="translate(-244.328 0.001)" fill="#4807e6"/>
      <path id="Path_3170" data-name="Path 3170" d="M0,287.94a5.451,5.451,0,0,0,5.451,5.451H23.168V270.223H0Zm7.73-8.06a1.363,1.363,0,0,1,1.927-1.927l1.927,1.927,1.927-1.927a1.363,1.363,0,0,1,1.927,1.927l-1.927,1.927,1.927,1.927a1.363,1.363,0,0,1-1.894,1.961l-.034-.034-1.927-1.927-1.927,1.927a1.363,1.363,0,0,1-1.927-1.927l1.927-1.927Zm0,0" transform="translate(0 -244.329)" fill="#4807e6"/>
      <path id="Path_3171" data-name="Path 3171" d="M270.223,293.39H287.94a5.451,5.451,0,0,0,5.451-5.451V270.222H270.223Zm7.5-15.672H285.9a1.363,1.363,0,0,1,0,2.726h-8.177a1.363,1.363,0,0,1,0-2.726Zm0,5.451H285.9a1.363,1.363,0,0,1,0,2.726h-8.177a1.363,1.363,0,0,1,0-2.726Zm0,0" transform="translate(-244.329 -244.329)" fill="#4807e6"/>
    </g>
  </g>
</svg>
