<svg xmlns="http://www.w3.org/2000/svg" width="28" height="28" viewBox="0 0 28 28">
  <g id="Teamwork_-_Free_user_icons-2" data-name="Teamwork - Free user icons-2" transform="translate(-0.002 0)">
    <path id="Path_4188" data-name="Path 4188" d="M27.84,24.36A7.73,7.73,0,0,0,23.7,19.939a4.261,4.261,0,0,0-2.041-6.859,2.837,2.837,0,0,0-.109-1.572,7.853,7.853,0,0,0-4.29-4.491,4.266,4.266,0,1,0-6.513,0,7.853,7.853,0,0,0-4.29,4.491,2.708,2.708,0,0,0-.085,1.566A4.261,4.261,0,0,0,4.3,19.939,7.729,7.729,0,0,0,.161,24.36a2.7,2.7,0,0,0,.332,2.465A2.781,2.781,0,0,0,2.769,28H6.781a1.094,1.094,0,1,0,0-2.187H2.769a.584.584,0,0,1-.486-.245.5.5,0,0,1-.064-.465,5.64,5.64,0,0,1,5.328-3.665A5.64,5.64,0,0,1,12.875,25.1a.55.55,0,0,1,.034.188c0,.006,0,.011,0,.017a.517.517,0,0,1-.094.279.536.536,0,0,1-.455.226,1.094,1.094,0,1,0,0,2.187,2.761,2.761,0,0,0,1.653-.548A2.794,2.794,0,0,0,15.676,28H19.8a1.094,1.094,0,1,0,0-2.187H15.676a.584.584,0,0,1-.486-.245.5.5,0,0,1-.064-.465,5.706,5.706,0,0,1,10.656,0,.516.516,0,0,1-.06.484.536.536,0,0,1-.455.226,1.094,1.094,0,1,0,0,2.187A2.713,2.713,0,0,0,27.84,24.36Zm-5.308-7.189a2.078,2.078,0,1,1-2.078-2.078A2.081,2.081,0,0,1,22.532,17.172ZM11.922,4.265A2.078,2.078,0,1,1,14,6.344,2.081,2.081,0,0,1,11.922,4.265ZM5.469,17.172A2.078,2.078,0,1,1,7.547,19.25,2.081,2.081,0,0,1,5.469,17.172ZM14,22.57a7.82,7.82,0,0,0-3.211-2.632,4.252,4.252,0,0,0,.54-4.736h2.288a1.094,1.094,0,1,0,0-2.187H9.1a.626.626,0,0,1-.521-.266.529.529,0,0,1-.071-.492,5.909,5.909,0,0,1,10.982,0,.6.6,0,0,1-.131.638l-.007.006a1.817,1.817,0,0,1-.4.266,1.094,1.094,0,0,0-.312.146,4.26,4.26,0,0,0-1.427,6.626A7.819,7.819,0,0,0,14,22.57Zm0,0" transform="translate(0)" fill="#121212"/>
  </g>
</svg>
