<svg id="Search_results_for_Info_-_Flaticon-2_1_" data-name="Search results for Info - Flaticon-2 (1)" xmlns="http://www.w3.org/2000/svg" width="29.462" height="28.677" viewBox="0 0 29.462 28.677">
  <path id="Path_3008" data-name="Path 3008" d="M14.731,0A14.531,14.531,0,0,0,0,14.339,14.531,14.531,0,0,0,14.731,28.677,14.531,14.531,0,0,0,29.462,14.339,14.531,14.531,0,0,0,14.731,0Zm0,26.437A12.26,12.26,0,0,1,2.3,14.339,12.26,12.26,0,0,1,14.731,2.24a12.26,12.26,0,0,1,12.429,12.1A12.26,12.26,0,0,1,14.731,26.437Zm3.414-5.489a1.136,1.136,0,0,1-1.151,1.12H12.468a1.121,1.121,0,1,1,0-2.24H13.58V13.256H12.468a1.121,1.121,0,1,1,0-2.24h2.263a1.136,1.136,0,0,1,1.151,1.12v7.692h1.112a1.136,1.136,0,0,1,1.151,1.12ZM13.292,6.927a1.439,1.439,0,1,1,1.439,1.4A1.42,1.42,0,0,1,13.292,6.927Zm0,0" fill="#4807e6"/>
</svg>
