<svg xmlns="http://www.w3.org/2000/svg" width="29" height="29" viewBox="0 0 29 29">
  <g id="Search_results_for_Menu_-_Flaticon-2_1_" data-name="Search results for Menu - Flaticon-2 (1)" transform="translate(-16.749 -16.75)">
    <g id="Group_16243" data-name="Group 16243" transform="translate(17.249 17.25)">
      <path id="Path_4194" data-name="Path 4194" d="M26.158,17.25H20.169a2.923,2.923,0,0,0-2.92,2.92v5.989a2.923,2.923,0,0,0,2.92,2.92h5.989a2.923,2.923,0,0,0,2.919-2.92V20.17A2.923,2.923,0,0,0,26.158,17.25Zm1.871,8.909a1.874,1.874,0,0,1-1.871,1.872H20.169A1.874,1.874,0,0,1,18.3,26.159V20.17A1.874,1.874,0,0,1,20.169,18.3h5.989A1.874,1.874,0,0,1,28.03,20.17Z" transform="translate(-17.249 -17.25)" fill="#000" stroke="#000" stroke-width="1"/>
      <path id="Path_4195" data-name="Path 4195" d="M80.158,17.25H74.169a2.923,2.923,0,0,0-2.92,2.92v5.989a2.923,2.923,0,0,0,2.92,2.92h5.989a2.923,2.923,0,0,0,2.92-2.92V20.17A2.923,2.923,0,0,0,80.158,17.25Zm1.871,8.909a1.874,1.874,0,0,1-1.871,1.872H74.169A1.874,1.874,0,0,1,72.3,26.159V20.17A1.874,1.874,0,0,1,74.169,18.3h5.989A1.874,1.874,0,0,1,82.03,20.17Z" transform="translate(-55.078 -17.25)" fill="#000" stroke="#000" stroke-width="1"/>
      <path id="Path_4196" data-name="Path 4196" d="M26.158,71.25H20.169a2.923,2.923,0,0,0-2.92,2.92v5.989a2.923,2.923,0,0,0,2.92,2.92h5.989a2.923,2.923,0,0,0,2.92-2.92V74.17A2.923,2.923,0,0,0,26.158,71.25Zm1.871,8.909a1.874,1.874,0,0,1-1.871,1.872H20.169A1.874,1.874,0,0,1,18.3,80.159V74.17A1.874,1.874,0,0,1,20.169,72.3h5.989A1.874,1.874,0,0,1,28.03,74.17Z" transform="translate(-17.249 -55.079)" fill="#000" stroke="#000" stroke-width="1"/>
      <path id="Path_4197" data-name="Path 4197" d="M77.164,71.25a5.914,5.914,0,1,0,5.914,5.914,5.915,5.915,0,0,0-5.914-5.914Zm0,10.781a4.866,4.866,0,1,1,4.866-4.866A4.866,4.866,0,0,1,77.164,82.031Z" transform="translate(-55.078 -55.079)" fill="#000" stroke="#000" stroke-width="1"/>
    </g>
  </g>
</svg>
