<svg xmlns="http://www.w3.org/2000/svg" width="107" height="107" viewBox="0 0 107 107">
  <g id="Group_9723" data-name="Group 9723" transform="translate(-297 -5712)">
    <circle id="Ellipse_18" data-name="Ellipse 18" cx="53.5" cy="53.5" r="53.5" transform="translate(297 5712)" fill="#f4f7fa"/>
    <g id="Search_results_for_Physics_-_Flaticon-2" data-name="Search results for Physics - Flaticon-2" transform="translate(323 5737)">
      <g id="XMLID_1043_" transform="translate(0 0)">
        <path id="XMLID_1087_" d="M374.333,81.625a4.924,4.924,0,0,0,9.175,2.487h0a4.911,4.911,0,0,0,.582-3.446h0a4.926,4.926,0,0,0-9.758.959Z" transform="translate(-333.339 -68.052)" fill="#4807e6"/>
        <path id="XMLID_1090_" d="M226.311,208.644a5.13,5.13,0,1,0,5.129,5.13A5.135,5.135,0,0,0,226.311,208.644Z" transform="translate(-197.453 -185.122)" fill="#4807e6"/>
        <path id="XMLID_1102_" d="M87.152,36.115a20.457,20.457,0,0,0-4.043-5.888q-.733-.788-1.557-1.576.823-.788,1.557-1.576a20.456,20.456,0,0,0,4.043-5.888,6.589,6.589,0,0,0,.091-5.729c-.062-.12-.133-.236-.207-.352A8.317,8.317,0,0,1,83.9,20.181a21.76,21.76,0,0,1-4.884,6.22,62.168,62.168,0,0,0-6.169-4.458q-.138-1.548-.339-3.038a53.284,53.284,0,0,0-1.591-7.722q-.327-1.123-.7-2.164a20.459,20.459,0,0,0-3.365-6.3,6.038,6.038,0,0,0-10.087,0,20.458,20.458,0,0,0-3.365,6.3c-.433,1.211-.821,2.513-1.162,3.888-1.378-.33-2.712-.586-3.986-.759a20.456,20.456,0,0,0-7.142.086,6.59,6.59,0,0,0-4.735,3.225,6.59,6.59,0,0,0,.091,5.728,20.457,20.457,0,0,0,4.043,5.888q.7.749,1.477,1.5a29.026,29.026,0,0,0-3.729,4.193,8.25,8.25,0,0,1,3.514.962,29.353,29.353,0,0,1,2.751-2.9,61.989,61.989,0,0,0,6.25,4.526c.178,1.994.434,3.921.766,5.753A33.165,33.165,0,0,1,46.132,42a8.249,8.249,0,0,1-1.194,3.44,33.2,33.2,0,0,0,7.308-1.013c.34,1.365.725,2.658,1.155,3.86a20.459,20.459,0,0,0,3.365,6.3A6.59,6.59,0,0,0,61.81,57.3c.18,0,.356-.01.53-.025a8.319,8.319,0,0,1-3.2-5.143A23.951,23.951,0,0,1,55.5,43.521a65.782,65.782,0,0,0,6.317-2.347q1.763.751,3.5,1.381A53.415,53.415,0,0,0,73.225,44.8q1.095.214,2.141.356a27.207,27.207,0,0,0,3.647.266,15.856,15.856,0,0,0,3.495-.352,6.59,6.59,0,0,0,4.735-3.225,6.588,6.588,0,0,0-.091-5.728ZM76.436,28.651Q74.912,29.884,73.1,31.14q.037-1.229.037-2.489T73.1,26.16Q74.911,27.412,76.436,28.651ZM61.813,37.484q-1.788-.808-3.663-1.778-2.2-1.139-4.14-2.314-.144-2.266-.148-4.741c0-1.653.052-3.238.148-4.753Q56,22.714,58.15,21.6c1.209-.627,2.433-1.221,3.655-1.778q1.789.809,3.665,1.778,2.2,1.139,4.141,2.314.144,2.266.148,4.741,0,2.438-.141,4.737-1.949,1.173-4.147,2.318-1.872.971-3.657,1.778ZM54.4,19.772q.175-1.378.4-2.654,1.357.427,2.8.963-.5.253-1.006.512-1.116.579-2.193,1.178Zm12.627-1.178q-.523-.271-1.046-.532c.957-.369,1.9-.709,2.826-1.019q.232,1.312.413,2.734Q68.141,19.173,67.027,18.594ZM61.81,3.382c2.068,0,4.645,3.733,6.293,10.335-2.038.668-4.167,1.48-6.309,2.407A65.577,65.577,0,0,0,55.5,13.8C57.143,7.147,59.733,3.382,61.81,3.382ZM39.379,17.016c.571-1.1,2.418-1.746,5.234-1.746a30.335,30.335,0,0,1,6.923.939c-.328,1.817-.583,3.729-.76,5.705a63.43,63.43,0,0,0-6.232,4.429C40.249,22.261,38.5,18.712,39.379,17.016Zm7.748,11.589q1.585-1.257,3.394-2.488-.041,1.257-.042,2.533,0,1.255.04,2.491C49.29,30.292,48.159,29.443,47.127,28.605ZM54.8,40.2q-.225-1.283-.4-2.672,1.079.6,2.193,1.183.508.263,1.017.517Q56.163,39.767,54.8,40.2Zm12.225-1.489q1.124-.583,2.212-1.194-.171,1.375-.4,2.676-1.367-.43-2.821-.97C66.355,39.053,66.691,38.883,67.027,38.709Zm17.214,1.578c-.955,1.841-5.478,2.407-12.128.815.328-1.819.579-3.742.75-5.752A62.119,62.119,0,0,0,79.015,30.9c4.339,4.106,6.109,7.681,5.225,9.385Z" transform="translate(-32.952 0)" fill="#4807e6"/>
        <path id="XMLID_1117_" d="M20.555,325.491a4.926,4.926,0,1,0-4.926,4.926A4.932,4.932,0,0,0,20.555,325.491Z" transform="translate(-10.703 -284.426)" fill="#4807e6"/>
        <path id="XMLID_1121_" d="M281.588,410.254a4.913,4.913,0,0,0-1.576-3.607h0a4.907,4.907,0,0,0-3.13-1.313c-.073,0-.146-.006-.22-.006a4.926,4.926,0,1,0,4.926,4.926Z" transform="translate(-242.308 -359.633)" fill="#4807e6"/>
      </g>
    </g>
  </g>
</svg>
