<svg xmlns="http://www.w3.org/2000/svg" width="58.036" height="51.227" viewBox="0 0 58.036 51.227">
  <g id="Search_results_for_Quotes_-_Flaticon-2" data-name="Search results for Quotes - Flaticon-2" transform="translate(0.001 -57.197)">
    <g id="Group_10079" data-name="Group 10079" transform="translate(-0.001 57.197)">
      <path id="Path_3200" data-name="Path 3200" d="M578.154,57.2H560.059a2.977,2.977,0,0,0-2.976,2.976V78.268a2.977,2.977,0,0,0,2.976,2.976h8.66q-.17,7.107-3.3,11.38a17.929,17.929,0,0,1-7.458,5.583,2.972,2.972,0,0,0-1.476,3.994l2.143,4.524a2.976,2.976,0,0,0,3.875,1.452,33.088,33.088,0,0,0,9.982-6.476,25.127,25.127,0,0,0,6.8-10.827q1.839-6.035,1.839-16.475V60.173A2.977,2.977,0,0,0,578.154,57.2Z" transform="translate(-523.094 -57.197)" fill="rgba(72,7,230,0.11)"/>
      <path id="Path_3201" data-name="Path 3201" d="M6.31,108.165a33.646,33.646,0,0,0,9.934-6.464,24.993,24.993,0,0,0,6.845-10.785q1.839-5.991,1.839-16.517V60.173A2.977,2.977,0,0,0,21.953,57.2H3.858A2.977,2.977,0,0,0,.882,60.173V78.268a2.977,2.977,0,0,0,2.976,2.976h8.66q-.17,7.107-3.3,11.38a17.929,17.929,0,0,1-7.458,5.583A2.972,2.972,0,0,0,.287,102.2l2.137,4.512A2.984,2.984,0,0,0,6.31,108.165Z" transform="translate(0.001 -57.197)" fill="rgba(72,7,230,0.11)"/>
    </g>
  </g>
</svg>
