<svg xmlns="http://www.w3.org/2000/svg" width="58.036" height="51.227" viewBox="0 0 58.036 51.227">
  <g id="Search_results_for_Quotes_-_Flaticon-2" data-name="Search results for Quotes - Flaticon-2" transform="translate(0)">
    <g id="Group_10079" data-name="Group 10079" transform="translate(0)">
      <path id="Path_3200" data-name="Path 3200" d="M559.176,57.2H577.27a2.977,2.977,0,0,1,2.976,2.976V78.268a2.977,2.977,0,0,1-2.976,2.976h-8.66q.17,7.107,3.3,11.38a17.929,17.929,0,0,0,7.458,5.583,2.972,2.972,0,0,1,1.476,3.994l-2.143,4.524a2.976,2.976,0,0,1-3.875,1.452,33.088,33.088,0,0,1-9.982-6.476,25.127,25.127,0,0,1-6.8-10.827Q556.2,84.839,556.2,74.4V60.173A2.977,2.977,0,0,1,559.176,57.2Z" transform="translate(-556.2 -57.197)" fill="rgba(72,7,230,0.11)"/>
      <path id="Path_3201" data-name="Path 3201" d="M18.617,108.165A33.646,33.646,0,0,1,8.683,101.7,24.993,24.993,0,0,1,1.838,90.916Q0,84.925,0,74.4V60.173A2.977,2.977,0,0,1,2.975,57.2H21.069a2.977,2.977,0,0,1,2.976,2.976V78.268a2.977,2.977,0,0,1-2.976,2.976h-8.66q.17,7.107,3.3,11.38a17.93,17.93,0,0,0,7.458,5.583,2.972,2.972,0,0,1,1.476,3.994L22.5,106.713A2.984,2.984,0,0,1,18.617,108.165Z" transform="translate(33.107 -57.197)" fill="rgba(72,7,230,0.11)"/>
    </g>
  </g>
</svg>
