<svg xmlns="http://www.w3.org/2000/svg" width="28" height="28" viewBox="0 0 28 28">
  <g id="Line_chart_-_Free_business_icons-2" data-name="Line chart - Free business icons-2" transform="translate(0 0)">
    <path id="Path_4187" data-name="Path 4187" d="M28,14.711v3.227a1.094,1.094,0,0,1-2.187,0V15.273L22.391,18.7a3.281,3.281,0,0,1-4.64,0l-1.133-1.133a1.094,1.094,0,1,1,1.547-1.547L19.3,17.148a1.093,1.093,0,0,0,1.547,0l3.531-3.531H21.438a1.094,1.094,0,0,1,0-2.187h3.281A3.285,3.285,0,0,1,28,14.711ZM24.719,0H21.438a1.094,1.094,0,1,0,0,2.187h2.938L11.568,14.995a1.1,1.1,0,0,1-1.547,0L8.752,13.726a3.281,3.281,0,0,0-4.7.061L2.188,15.754V12.489a1.074,1.074,0,0,0,.119-.107L5.981,8.508A1.094,1.094,0,0,1,7.545,8.49L10.6,11.546A1.094,1.094,0,1,0,12.149,10L9.092,6.943A3.281,3.281,0,0,0,4.4,7L2.188,9.329V1.093A1.094,1.094,0,0,0,0,1.093V26.906A1.094,1.094,0,0,0,1.094,28H26.907a1.094,1.094,0,1,0,0-2.187H2.188V18.935l3.451-3.643a1.093,1.093,0,0,1,1.566-.02l1.269,1.269a3.282,3.282,0,0,0,4.64,0l12.7-12.7V6.507a1.094,1.094,0,0,0,2.187,0V3.281A3.285,3.285,0,0,0,24.719,0Zm0,0" fill="#121212"/>
  </g>
</svg>
