<svg xmlns="http://www.w3.org/2000/svg" width="59" height="57" viewBox="0 0 59 57">
  <g id="Group_10213" data-name="Group 10213" transform="translate(-632 -465)">
    <ellipse id="Ellipse_18" data-name="Ellipse 18" cx="29.5" cy="28.5" rx="29.5" ry="28.5" transform="translate(632 465)" fill="transparent"/>
    <g id="Search_results_for_School_-_Flaticon-2_1_" data-name="Search results for School - Flaticon-2 (1)" transform="translate(645.507 476.507)">
      <path id="Path_3263" data-name="Path 3263" d="M22.264,317.066h-6.2v11.316a.943.943,0,0,0,.943.943h5.416a2.816,2.816,0,0,1-.162-.943Zm-2.155,9.161a.943.943,0,1,1-1.887,0v-1.01a.943.943,0,1,1,1.887,0Zm0-5.052a.943.943,0,1,1-1.887,0v-1.01a.943.943,0,0,1,1.887,0Z" transform="translate(-15.056 -297.126)" fill="#4807e6"/>
      <path id="Path_3264" data-name="Path 3264" d="M394.982,328.382a2.817,2.817,0,0,1-.162.943h5.416a.943.943,0,0,0,.943-.943V317.066h-6.2Zm2.155-8.218a.943.943,0,0,1,1.887,0v1.01a.943.943,0,1,1-1.887,0Zm0,5.052a.943.943,0,1,1,1.887,0v1.01a.943.943,0,1,1-1.887,0Z" transform="translate(-369.989 -297.126)" fill="#4807e6"/>
      <path id="Path_3265" data-name="Path 3265" d="M7.207,193.743a2.833,2.833,0,0,1,.161-.943H4.985a.943.943,0,0,0-.667.276L.276,197.118a.943.943,0,0,0,.667,1.61H7.207Z" transform="translate(0 -180.675)" fill="#4807e6"/>
      <path id="Path_3266" data-name="Path 3266" d="M401.939,197.117l-4.042-4.042a.943.943,0,0,0-.667-.276h-2.383a2.832,2.832,0,0,1,.161.943v4.985h6.264a.943.943,0,0,0,.667-1.61Z" transform="translate(-370.016 -180.674)" fill="#4807e6"/>
      <path id="Path_3267" data-name="Path 3267" d="M238.867,431.667h2.155v5.052h-2.155Z" transform="translate(-223.844 -404.519)" fill="#4807e6"/>
      <path id="Path_3268" data-name="Path 3268" d="M238.867,223.878a1.077,1.077,0,1,0,1.077-1.078A1.079,1.079,0,0,0,238.867,223.878Z" transform="translate(-223.844 -208.788)" fill="#4807e6"/>
      <path id="Path_3269" data-name="Path 3269" d="M157.669,0h-6.063a.943.943,0,0,0-.943.943V6.615L144.876,12.4a.943.943,0,0,0-.276.667V31.257a.943.943,0,0,0,.943.943h3.1v-6a.943.943,0,0,1,.943-.943h4.042a.943.943,0,0,1,.943.943v6h3.1a.943.943,0,0,0,.943-.943V13.069a.943.943,0,0,0-.276-.667l-5.786-5.786V4.985h5.119a.943.943,0,0,0,.943-.943V.943A.943.943,0,0,0,157.669,0Zm-7.14,22.163a.943.943,0,0,1-1.887,0v-1.01a.943.943,0,0,1,1.887,0Zm4.042,0a.943.943,0,0,1-1.887,0v-1.01a.943.943,0,1,1,1.887,0Zm0-7.073a2.964,2.964,0,1,1-2.964-2.964A2.968,2.968,0,0,1,154.57,15.09Z" transform="translate(-135.506 0)" fill="#4807e6"/>
    </g>
  </g>
</svg>
