<svg xmlns="http://www.w3.org/2000/svg" width="104.797" height="104.797" viewBox="0 0 104.797 104.797">
  <g id="school" transform="translate(-906.686 -68)">
    <g id="Group_10149" data-name="Group 10149" transform="translate(906.686 68)">
      <g id="Group_1" data-name="Group 1" transform="translate(0)">
        <path id="Path_1" data-name="Path 1" d="M331.641,423.046A24.055,24.055,0,1,0,355.7,447.1,24.055,24.055,0,0,0,331.641,423.046Zm0,35.17A11.115,11.115,0,1,1,342.756,447.1,11.115,11.115,0,0,1,331.641,458.216Z" transform="translate(-279.242 -394.702)" fill="#4807e6"/>
        <circle id="Ellipse_1" data-name="Ellipse 1" cx="11.115" cy="11.115" r="11.115" transform="translate(41.284)" fill="#4807e6"/>
        <circle id="Ellipse_2" data-name="Ellipse 2" cx="11.115" cy="11.115" r="11.115" transform="translate(70.476 12.092)" fill="#4807e6"/>
        <circle id="Ellipse_3" data-name="Ellipse 3" cx="11.115" cy="11.115" r="11.115" transform="translate(82.567 41.284)" fill="#4807e6"/>
        <circle id="Ellipse_4" data-name="Ellipse 4" cx="11.115" cy="11.115" r="11.115" transform="translate(70.476 70.476)" fill="#4807e6"/>
        <circle id="Ellipse_5" data-name="Ellipse 5" cx="11.115" cy="11.115" r="11.115" transform="translate(41.284 82.567)" fill="#4807e6"/>
        <circle id="Ellipse_6" data-name="Ellipse 6" cx="11.115" cy="11.115" r="11.115" transform="translate(12.092 70.476)" fill="#4807e6"/>
        <circle id="Ellipse_7" data-name="Ellipse 7" cx="11.115" cy="11.115" r="11.115" transform="translate(0 41.284)" fill="#4807e6"/>
        <circle id="Ellipse_8" data-name="Ellipse 8" cx="11.115" cy="11.115" r="11.115" transform="translate(12.092 12.092)" fill="#4807e6"/>
      </g>
    </g>
    <path id="Path_3315" data-name="Path 3315" d="M22,0A22,22,0,1,1,0,22,22,22,0,0,1,22,0Z" transform="translate(937 98.314)" fill="#4807e6"/>
    <g id="Search_results_for_School_-_Flaticon-2_1_" data-name="Search results for School - Flaticon-2 (1)" transform="translate(943.841 105.156)">
      <path id="Path_3263" data-name="Path 3263" d="M21.9,317.066H16.067V327.72a.888.888,0,0,0,.888.888h5.1a2.652,2.652,0,0,1-.153-.888Zm-2.029,8.625a.888.888,0,0,1-1.776,0v-.951a.888.888,0,1,1,1.776,0Zm0-4.757a.888.888,0,1,1-1.776,0v-.951a.888.888,0,0,1,1.776,0Z" transform="translate(-15.116 -298.292)" fill="#fff"/>
      <path id="Path_3264" data-name="Path 3264" d="M394.973,327.72a2.651,2.651,0,0,1-.153.888h5.1a.888.888,0,0,0,.888-.888V317.066h-5.834ZM397,319.983a.888.888,0,0,1,1.776,0v.951a.888.888,0,1,1-1.776,0Zm0,4.757a.888.888,0,1,1,1.776,0v.951a.888.888,0,1,1-1.776,0Z" transform="translate(-371.442 -298.292)" fill="#fff"/>
      <path id="Path_3265" data-name="Path 3265" d="M6.786,193.688a2.667,2.667,0,0,1,.151-.888H4.694a.888.888,0,0,0-.628.26L.26,196.865a.888.888,0,0,0,.628,1.516h5.9Z" transform="translate(0 -181.384)" fill="#fff"/>
      <path id="Path_3266" data-name="Path 3266" d="M401.524,196.864l-3.805-3.805a.888.888,0,0,0-.628-.26h-2.243a2.666,2.666,0,0,1,.151.888v4.693h5.9a.888.888,0,0,0,.628-1.516Z" transform="translate(-371.469 -181.383)" fill="#fff"/>
      <path id="Path_3267" data-name="Path 3267" d="M238.867,431.667H240.9v4.757h-2.029Z" transform="translate(-224.723 -406.108)" fill="#fff"/>
      <path id="Path_3268" data-name="Path 3268" d="M238.867,223.815a1.014,1.014,0,1,0,1.014-1.015A1.016,1.016,0,0,0,238.867,223.815Z" transform="translate(-224.723 -209.608)" fill="#fff"/>
      <path id="Path_3269" data-name="Path 3269" d="M156.9,0H151.2a.888.888,0,0,0-.888.888v5.34l-5.448,5.448a.888.888,0,0,0-.26.628V29.428a.888.888,0,0,0,.888.888h2.917V24.671a.888.888,0,0,1,.888-.888H153.1a.888.888,0,0,1,.888.888v5.645H156.9a.888.888,0,0,0,.888-.888V12.3a.888.888,0,0,0-.26-.628l-5.448-5.448V4.693h4.82a.888.888,0,0,0,.888-.888V.888A.888.888,0,0,0,156.9,0Zm-6.722,20.866a.888.888,0,0,1-1.776,0v-.951a.888.888,0,0,1,1.776,0Zm3.805,0a.888.888,0,1,1-1.776,0v-.951a.888.888,0,1,1,1.776,0Zm0-6.659a2.791,2.791,0,1,1-2.791-2.791A2.794,2.794,0,0,1,153.987,14.207Z" transform="translate(-136.038 0)" fill="#fff"/>
    </g>
  </g>
</svg>
