<svg xmlns="http://www.w3.org/2000/svg" width="28" height="28" viewBox="0 0 28 28">
  <g id="Settings_-_Free_social_icons-2" data-name="Settings - Free social icons-2" transform="translate(0)">
    <path id="Path_4185" data-name="Path 4185" d="M28,13.453v1.094a3.285,3.285,0,0,1-3.281,3.281h-.551a.365.365,0,0,0-.335.232l-.007.017a1.094,1.094,0,0,1-2.023-.832l.007-.018a2.546,2.546,0,0,1,2.357-1.586h.551a1.1,1.1,0,0,0,1.094-1.094V13.453a1.1,1.1,0,0,0-1.094-1.094h-.551a2.546,2.546,0,0,1-2.356-1.585l-.007-.016A2.547,2.547,0,0,1,22.35,7.97l.39-.389a1.1,1.1,0,0,0,0-1.547l-.774-.773a1.093,1.093,0,0,0-1.547,0l-.39.389a2.547,2.547,0,0,1-2.788.545l-.016-.007a2.546,2.546,0,0,1-1.585-2.356V3.281a1.1,1.1,0,0,0-1.094-1.094H13.453A1.1,1.1,0,0,0,12.36,3.281v.551a2.546,2.546,0,0,1-1.585,2.356l-.014.006a2.548,2.548,0,0,1-2.79-.544l-.39-.39a1.094,1.094,0,0,0-1.547,0l-.774.774a1.1,1.1,0,0,0,0,1.547l.39.389A2.547,2.547,0,0,1,6.2,10.758l-.007.016a2.546,2.546,0,0,1-2.356,1.585H3.281a1.1,1.1,0,0,0-1.094,1.094v1.094a1.1,1.1,0,0,0,1.094,1.094h.551a2.546,2.546,0,0,1,2.356,1.585l.008.019A2.546,2.546,0,0,1,5.65,20.03l-.39.389a1.094,1.094,0,0,0,0,1.547l.774.774a1.1,1.1,0,0,0,1.547,0l.389-.39a2.547,2.547,0,0,1,2.786-.546l.014.006a2.547,2.547,0,0,1,1.589,2.358v.551a1.1,1.1,0,0,0,1.094,1.094h1.094a1.1,1.1,0,0,0,1.094-1.094v-.551a2.546,2.546,0,0,1,1.585-2.356l.018-.007a2.547,2.547,0,0,1,2.786.546l.389.389a1.1,1.1,0,0,0,1.547,0l.773-.773a1.094,1.094,0,1,1,1.547,1.547l-.773.774a3.285,3.285,0,0,1-4.64,0l-.39-.389a.366.366,0,0,0-.4-.072l-.024.01a.364.364,0,0,0-.229.333v.551A3.285,3.285,0,0,1,14.547,28H13.453a3.285,3.285,0,0,1-3.281-3.281v-.551a.365.365,0,0,0-.233-.335l-.02-.008a.366.366,0,0,0-.4.072l-.39.39a3.285,3.285,0,0,1-4.64,0l-.774-.774a3.281,3.281,0,0,1,0-4.64l.389-.39a.367.367,0,0,0,.072-.4l-.009-.021a.365.365,0,0,0-.334-.231H3.281A3.285,3.285,0,0,1,0,14.547V13.453a3.285,3.285,0,0,1,3.281-3.281h.551a.365.365,0,0,0,.335-.232l.008-.02a.366.366,0,0,0-.072-.4l-.389-.389a3.285,3.285,0,0,1,0-4.641l.773-.773a3.281,3.281,0,0,1,4.641,0l.389.389a.366.366,0,0,0,.4.072l.02-.008a.365.365,0,0,0,.233-.335V3.281A3.285,3.285,0,0,1,13.453,0h1.094a3.285,3.285,0,0,1,3.281,3.281v.551a.365.365,0,0,0,.232.335l.022.009a.365.365,0,0,0,.4-.073l.39-.389a3.281,3.281,0,0,1,4.64,0l.773.773a3.285,3.285,0,0,1,0,4.64l-.389.39a.366.366,0,0,0-.072.4l.008.02a.366.366,0,0,0,.335.233h.551A3.285,3.285,0,0,1,28,13.453Z" transform="translate(0 0)" fill="#121212"/>
    <circle id="Ellipse_243" data-name="Ellipse 243" cx="4" cy="4" r="4" transform="translate(10 10)" fill="#121212"/>
  </g>
</svg>
