<svg xmlns="http://www.w3.org/2000/svg" width="40.967" height="39.212" viewBox="0 0 40.967 39.212">
  <g id="Search_results_for_Star_-_Flaticon-2" data-name="Search results for Star - Flaticon-2" transform="translate(0 -10.971)">
    <path id="Path_1289" data-name="Path 1289" d="M81.807,27.073l-10.7-.993L66.855,16.21a.857.857,0,0,0-1.575,0l-4.251,9.871-10.7.993a.858.858,0,0,0-.487,1.5l8.074,7.093L55.552,46.149a.858.858,0,0,0,1.274.926l9.241-5.487,9.241,5.487a.858.858,0,0,0,1.274-.926L74.219,35.664l8.074-7.093A.858.858,0,0,0,81.807,27.073Z" transform="translate(-45.583 -4.342)" fill="#ffdc64"/>
    <g id="Group_2997" data-name="Group 2997" transform="translate(0 10.971)">
      <path id="Path_1290" data-name="Path 1290" d="M91.414,11.528c.546.758,2.085,4.012,2.966,5.908a.3.3,0,0,1-.474.342c-1.519-1.436-4.117-3.929-4.662-4.687a1.338,1.338,0,0,1,2.171-1.563Z" transform="translate(-81.87 -10.971)" fill="#fff082"/>
      <path id="Path_1291" data-name="Path 1291" d="M358.28,11.528c-.546.758-2.085,4.012-2.966,5.908a.3.3,0,0,0,.474.342c1.519-1.436,4.117-3.929,4.662-4.687a1.338,1.338,0,0,0-2.171-1.563Z" transform="translate(-326.857 -10.971)" fill="#fff082"/>
      <path id="Path_1292" data-name="Path 1292" d="M421.512,283.753c-.888-.29-4.456-.768-6.53-1.03a.3.3,0,0,0-.181.556c1.83,1.011,4.994,2.728,5.882,3.018a1.338,1.338,0,0,0,.83-2.544Z" transform="translate(-381.468 -260.976)" fill="#fff082"/>
      <path id="Path_1293" data-name="Path 1293" d="M.924,283.753c.888-.29,4.456-.768,6.53-1.03a.3.3,0,0,1,.181.556c-1.83,1.011-4.994,2.728-5.882,3.018a1.338,1.338,0,0,1-.83-2.544Z" transform="translate(0 -260.976)" fill="#fff082"/>
      <path id="Path_1294" data-name="Path 1294" d="M239.794,406.472c0-.934.652-4.474,1.045-6.528a.3.3,0,0,1,.585,0c.394,2.053,1.045,5.594,1.045,6.528a1.338,1.338,0,0,1-2.675,0Z" transform="translate(-220.607 -368.598)" fill="#fff082"/>
    </g>
    <path id="Path_1295" data-name="Path 1295" d="M68.4,19.8,66.854,16.21a.857.857,0,0,0-1.575,0l-4.251,9.871-10.7.993a.858.858,0,0,0-.487,1.5l8.074,7.093L55.552,46.149a.858.858,0,0,0,1.274.926l1.23-.73A66.573,66.573,0,0,1,68.4,19.8Z" transform="translate(-45.583 -4.342)" fill="#ffc850"/>
  </g>
</svg>
