<svg xmlns="http://www.w3.org/2000/svg" width="59" height="57" viewBox="0 0 59 57">
  <g id="Group_10213" data-name="Group 10213" transform="translate(-632 -465)">
    <ellipse id="Ellipse_18" data-name="Ellipse 18" cx="29.5" cy="28.5" rx="29.5" ry="28.5" transform="translate(632 465)" fill="transparent"/>
    <g id="Search_results_for_Student_-_Flaticon-2_1_" data-name="Search results for Student - Flaticon-2 (1)" transform="translate(606 475.641)">
      <g id="Group_10212" data-name="Group 10212" transform="translate(41 0.359)">
        <ellipse id="Ellipse_207" data-name="Ellipse 207" cx="5.961" cy="5.588" rx="5.961" ry="5.588" transform="translate(8.656)" fill="#4807e6"/>
        <path id="Path_3256" data-name="Path 3256" d="M151.351,181.515a7.8,7.8,0,0,1-8.493,0,11.886,11.886,0,0,0-3.7,2.258l7.943,2.979,7.943-2.979A11.885,11.885,0,0,0,151.351,181.515Z" transform="translate(-132.487 -169.442)" fill="#4807e6"/>
        <path id="Path_3257" data-name="Path 3257" d="M412.7,310h-.68a1.02,1.02,0,0,0-1.02,1.02v2.719a1.02,1.02,0,0,0,1.02,1.02h.68a2.38,2.38,0,0,0,0-4.759Z" transform="translate(-385.845 -289.192)" fill="#4807e6"/>
        <path id="Path_3258" data-name="Path 3258" d="M81.439,231.785a1.02,1.02,0,0,0-.439.838v2.27h.34a3.063,3.063,0,0,1,3.059,3.059v2.719a3.063,3.063,0,0,1-3.059,3.059H81v2.149a1.02,1.02,0,0,0,.662.955l10.216,3.831V235.231l-9.5-3.562A1.019,1.019,0,0,0,81.439,231.785Z" transform="translate(-78.281 -216.126)" fill="#4807e6"/>
        <path id="Path_3259" data-name="Path 3259" d="M278.478,240.673v-2.719a3.063,3.063,0,0,1,3.059-3.059h.34v-2.27a1.02,1.02,0,0,0-1.378-.955l-9.5,3.562v15.435l10.216-3.831a1.02,1.02,0,0,0,.662-.955v-2.149h-.34A3.063,3.063,0,0,1,278.478,240.673Z" transform="translate(-255.363 -216.126)" fill="#4807e6"/>
        <path id="Path_3260" data-name="Path 3260" d="M45.079,313.739V311.02a1.02,1.02,0,0,0-1.02-1.02h-.68a2.38,2.38,0,0,0,0,4.759h.68A1.02,1.02,0,0,0,45.079,313.739Z" transform="translate(-41 -289.192)" fill="#4807e6"/>
      </g>
    </g>
  </g>
</svg>
