<svg xmlns="http://www.w3.org/2000/svg" width="104.797" height="104.797" viewBox="0 0 104.797 104.797">
  <g id="Group_17180" data-name="Group 17180" transform="translate(2443 -3652)">
    <g id="Group_17178" data-name="Group 17178" transform="translate(-2443 3652)">
      <g id="Group_1" data-name="Group 1" transform="translate(0)">
        <path id="Path_1" data-name="Path 1" d="M331.641,423.046A24.055,24.055,0,1,0,355.7,447.1,24.055,24.055,0,0,0,331.641,423.046Zm0,35.17c-6.139,0,6.415,13.125,6.415,6.986s-10.139,0-4,0-7-9.638-7-3.5S337.779,458.216,331.641,458.216Z" transform="translate(-279.242 -394.702)" fill="#4807e6"/>
        <circle id="Ellipse_1" data-name="Ellipse 1" cx="11.115" cy="11.115" r="11.115" transform="translate(41.284)" fill="#4807e6"/>
        <circle id="Ellipse_2" data-name="Ellipse 2" cx="11.115" cy="11.115" r="11.115" transform="translate(70.476 12.092)" fill="#4807e6"/>
        <circle id="Ellipse_3" data-name="Ellipse 3" cx="11.115" cy="11.115" r="11.115" transform="translate(82.567 41.284)" fill="#4807e6"/>
        <circle id="Ellipse_4" data-name="Ellipse 4" cx="11.115" cy="11.115" r="11.115" transform="translate(70.476 70.476)" fill="#4807e6"/>
        <circle id="Ellipse_5" data-name="Ellipse 5" cx="11.115" cy="11.115" r="11.115" transform="translate(41.284 82.567)" fill="#4807e6"/>
        <circle id="Ellipse_6" data-name="Ellipse 6" cx="11.115" cy="11.115" r="11.115" transform="translate(12.092 70.476)" fill="#4807e6"/>
        <circle id="Ellipse_7" data-name="Ellipse 7" cx="11.115" cy="11.115" r="11.115" transform="translate(0 41.284)" fill="#4807e6"/>
        <circle id="Ellipse_8" data-name="Ellipse 8" cx="11.115" cy="11.115" r="11.115" transform="translate(12.092 12.092)" fill="#4807e6"/>
      </g>
    </g>
    <g id="Group_17179" data-name="Group 17179" transform="translate(-2403 3690)">
      <ellipse id="Ellipse_207" data-name="Ellipse 207" cx="5.063" cy="4.746" rx="5.063" ry="4.746" transform="translate(7.352)" fill="#fff"/>
      <path id="Path_3256" data-name="Path 3256" d="M149.515,181.515a6.627,6.627,0,0,1-7.214,0,10.1,10.1,0,0,0-3.14,1.918l6.747,2.53,6.747-2.53A10.1,10.1,0,0,0,149.515,181.515Z" transform="translate(-133.493 -171.26)" fill="#fff"/>
      <path id="Path_3257" data-name="Path 3257" d="M412.444,310h-.577a.866.866,0,0,0-.866.866v2.31a.866.866,0,0,0,.866.866h.577a2.021,2.021,0,0,0,0-4.042Z" transform="translate(-389.634 -292.326)" fill="#fff"/>
      <path id="Path_3258" data-name="Path 3258" d="M81.373,231.758a.866.866,0,0,0-.373.712V234.4h.289a2.6,2.6,0,0,1,2.6,2.6v2.31a2.6,2.6,0,0,1-2.6,2.6H81v1.825a.866.866,0,0,0,.562.811l8.677,3.254V234.685l-8.069-3.026A.866.866,0,0,0,81.373,231.758Z" transform="translate(-78.69 -218.457)" fill="#fff"/>
      <path id="Path_3259" data-name="Path 3259" d="M277.352,239.307V237a2.6,2.6,0,0,1,2.6-2.6h.289V232.47a.866.866,0,0,0-1.17-.811L271,234.685V247.8l8.677-3.254a.866.866,0,0,0,.562-.811v-1.825h-.289A2.6,2.6,0,0,1,277.352,239.307Z" transform="translate(-257.718 -218.457)" fill="#fff"/>
      <path id="Path_3260" data-name="Path 3260" d="M44.465,313.176v-2.31A.866.866,0,0,0,43.6,310h-.577a2.021,2.021,0,0,0,0,4.042H43.6A.866.866,0,0,0,44.465,313.176Z" transform="translate(-41 -292.326)" fill="#fff"/>
    </g>
  </g>
</svg>
