<svg xmlns="http://www.w3.org/2000/svg" width="104.797" height="104.797" viewBox="0 0 104.797 104.797">
  <g id="teacher" transform="translate(-906.686 -68)">
    <g id="Group_10149" data-name="Group 10149" transform="translate(906.686 68)">
      <g id="Group_1" data-name="Group 1" transform="translate(0)">
        <path id="Path_1" data-name="Path 1" d="M331.641,423.046A24.055,24.055,0,1,0,355.7,447.1,24.055,24.055,0,0,0,331.641,423.046Zm0,35.17A11.115,11.115,0,1,1,342.756,447.1,11.115,11.115,0,0,1,331.641,458.216Z" transform="translate(-279.242 -394.702)" fill="#4807e6"/>
        <circle id="Ellipse_1" data-name="Ellipse 1" cx="11.115" cy="11.115" r="11.115" transform="translate(41.284)" fill="#4807e6"/>
        <circle id="Ellipse_2" data-name="Ellipse 2" cx="11.115" cy="11.115" r="11.115" transform="translate(70.476 12.092)" fill="#4807e6"/>
        <circle id="Ellipse_3" data-name="Ellipse 3" cx="11.115" cy="11.115" r="11.115" transform="translate(82.567 41.284)" fill="#4807e6"/>
        <circle id="Ellipse_4" data-name="Ellipse 4" cx="11.115" cy="11.115" r="11.115" transform="translate(70.476 70.476)" fill="#4807e6"/>
        <circle id="Ellipse_5" data-name="Ellipse 5" cx="11.115" cy="11.115" r="11.115" transform="translate(41.284 82.567)" fill="#4807e6"/>
        <circle id="Ellipse_6" data-name="Ellipse 6" cx="11.115" cy="11.115" r="11.115" transform="translate(12.092 70.476)" fill="#4807e6"/>
        <circle id="Ellipse_7" data-name="Ellipse 7" cx="11.115" cy="11.115" r="11.115" transform="translate(0 41.284)" fill="#4807e6"/>
        <circle id="Ellipse_8" data-name="Ellipse 8" cx="11.115" cy="11.115" r="11.115" transform="translate(12.092 12.092)" fill="#4807e6"/>
      </g>
    </g>
    <path id="Path_3315" data-name="Path 3315" d="M22,0A22,22,0,1,1,0,22,22,22,0,0,1,22,0Z" transform="translate(937 98.314)" fill="#4807e6"/>
    <g id="Man_in_suit_and_tie_-_Free_social_icons-2" data-name="Man in suit and tie - Free social icons-2" transform="translate(943.264 103.86)">
      <g id="Group_10195" data-name="Group 10195" transform="translate(2.352 0)">
        <g id="Group_10194" data-name="Group 10194">
          <path id="Path_3234" data-name="Path 3234" d="M7.981,10.324A2.192,2.192,0,0,0,8.475,11.4c.486,3.385,3.525,6.27,5.966,6.15,3.1-.152,5.305-3.5,5.8-6.15a2.705,2.705,0,0,0,.519-1.191,2.775,2.775,0,0,0-.091-2.01c-.022-.025-.161-.154-.185-.175.349-1.26,1.116-3.507-.794-5.527A8.889,8.889,0,0,0,15.917.419a5.83,5.83,0,0,0-7.792,3.5,6.1,6.1,0,0,0,.033,4.1.724.724,0,0,0-.183.175C7.608,8.684,7.847,9.715,7.981,10.324Z" transform="translate(-0.887 0)" fill="#fff"/>
          <path id="Path_3235" data-name="Path 3235" d="M29.278,25.4c-.107-2.33-.239-6.023-2.274-9.044a4.512,4.512,0,0,0-1.957-1.317,19.908,19.908,0,0,1-4.366-1.895l-.629.43.07,4.086L16.349,27.732a.564.564,0,0,1-1.056,0L11.52,17.658s.07-4.074.069-4.086c.009.034-.63-.43-.63-.43a19.855,19.855,0,0,1-4.364,1.895,4.512,4.512,0,0,0-1.957,1.317C2.6,19.373,2.469,23.066,2.362,25.4c-.074,1.61.264,2.211.688,2.382,5.265,2.113,20.272,2.113,25.538,0C29.015,27.608,29.351,27.006,29.278,25.4Z" transform="translate(-2.352 3.545)" fill="#fff"/>
          <path id="Path_3236" data-name="Path 3236" d="M13.451,14.909l-.17,0a5.046,5.046,0,0,1-1.646-.295l1.5,2.289-1.342,1.3,1.382,8.39a.148.148,0,0,0,.147.124.15.15,0,0,0,.147-.124l1.382-8.39-1.343-1.3,1.474-2.255A6.321,6.321,0,0,1,13.451,14.909Z" transform="translate(0.153 3.944)" fill="#fff"/>
        </g>
      </g>
    </g>
  </g>
</svg>
