<svg xmlns="http://www.w3.org/2000/svg" width="28" height="28" viewBox="0 0 28 28">
  <g id="Deadline_-_Free_time_and_date_icons-2" data-name="Deadline - Free time and date icons-2" transform="translate(0)">
    <path id="Path_4186" data-name="Path 4186" d="M18.648,14.273a1.094,1.094,0,0,1,1.094,1.094v3.306a1.094,1.094,0,0,1-.39.837L17.6,20.984a1.094,1.094,0,1,1-1.408-1.674l1.363-1.146v-2.8a1.094,1.094,0,0,1,1.094-1.094Zm8.258-4.32a1.094,1.094,0,0,0-1.094,1.094V12.73A9.327,9.327,0,1,0,18.648,28a9.418,9.418,0,0,0,4.063-.922l.064-.03.017-.01c.147-.072.293-.148.437-.228A1.094,1.094,0,0,0,22.161,24.9a7.149,7.149,0,1,1-3.538-13.367,7.135,7.135,0,0,1,5.666,2.795h-1.7a1.094,1.094,0,1,0,0,2.187h2.133A3.285,3.285,0,0,0,28,13.234V11.047a1.094,1.094,0,0,0-1.094-1.094Zm-.781,12.41a1.094,1.094,0,1,0,.3,1.518,1.093,1.093,0,0,0-.3-1.518Zm1.837-3.381c-.007-.035-.016-.069-.026-.1s-.022-.068-.036-.1a1.059,1.059,0,0,0-.046-.1c-.017-.032-.035-.062-.055-.092a1.026,1.026,0,0,0-.064-.086,1.079,1.079,0,0,0-.152-.152,1,1,0,0,0-.087-.064,1.051,1.051,0,0,0-.092-.055c-.032-.017-.064-.032-.1-.046s-.067-.026-.1-.036-.07-.019-.1-.026A1,1,0,0,0,27,18.107a1.062,1.062,0,0,0-.215,0,.994.994,0,0,0-.106.016,1.108,1.108,0,0,0-.2.062,1,1,0,0,0-.1.046.964.964,0,0,0-.092.055.913.913,0,0,0-.087.064,1.024,1.024,0,0,0-.08.072.991.991,0,0,0-.073.08,1.1,1.1,0,0,0-.118.178,1.058,1.058,0,0,0-.046.1c-.014.033-.026.067-.036.1s-.019.069-.026.1a1.093,1.093,0,0,0,0,.428c.007.034.016.069.026.1s.022.068.036.1a1.058,1.058,0,0,0,.046.1c.016.031.035.062.055.092a1.019,1.019,0,0,0,.063.086.991.991,0,0,0,.073.08,1.023,1.023,0,0,0,.08.072.992.992,0,0,0,.087.064.964.964,0,0,0,.092.055,1,1,0,0,0,.1.046,1.066,1.066,0,0,0,.1.036c.034.01.069.019.1.026a.993.993,0,0,0,.106.016,1.01,1.01,0,0,0,.108.006,1.127,1.127,0,0,0,.214-.021c.035-.007.07-.016.1-.026s.068-.022.1-.036.065-.029.1-.046A1.051,1.051,0,0,0,27.5,20.1c.029-.02.059-.041.087-.064a1.079,1.079,0,0,0,.152-.152A1.026,1.026,0,0,0,27.8,19.8c.02-.03.038-.061.055-.092a1.06,1.06,0,0,0,.046-.1c.014-.033.026-.067.036-.1s.019-.069.026-.1a1.083,1.083,0,0,0,.016-.322A1.07,1.07,0,0,0,27.962,18.981ZM8.968,25.812H4.375a2.19,2.19,0,0,1-2.187-2.187V6.562A2.19,2.19,0,0,1,4.375,4.375H5.742V5.469a1.094,1.094,0,1,0,2.187,0V4.375h4.922V5.469a1.094,1.094,0,1,0,2.187,0V4.375h4.977V5.469a1.094,1.094,0,1,0,2.187,0V4.375h1.422a2.19,2.19,0,0,1,2.187,2.187,1.094,1.094,0,1,0,2.187,0,4.38,4.38,0,0,0-4.375-4.375H22.2V1.094a1.094,1.094,0,1,0-2.187,0V2.187H15.039V1.094a1.094,1.094,0,1,0-2.187,0V2.187H7.929V1.094a1.094,1.094,0,1,0-2.187,0V2.187H4.375A4.38,4.38,0,0,0,0,6.562V23.625A4.38,4.38,0,0,0,4.375,28H8.968a1.094,1.094,0,0,0,0-2.187Zm0,0" fill="#121212"/>
  </g>
</svg>
