<svg xmlns="http://www.w3.org/2000/svg" width="104.797" height="104.797" viewBox="0 0 104.797 104.797">
  <g id="university" transform="translate(-906.686 -68)">
    <g id="Group_10149" data-name="Group 10149" transform="translate(906.686 68)">
      <g id="Group_1" data-name="Group 1" transform="translate(0)">
        <path id="Path_1" data-name="Path 1" d="M331.641,423.046A24.055,24.055,0,1,0,355.7,447.1,24.055,24.055,0,0,0,331.641,423.046Zm0,35.17A11.115,11.115,0,1,1,342.756,447.1,11.115,11.115,0,0,1,331.641,458.216Z" transform="translate(-279.242 -394.702)" fill="#4807e6"/>
        <circle id="Ellipse_1" data-name="Ellipse 1" cx="11.115" cy="11.115" r="11.115" transform="translate(41.284)" fill="#4807e6"/>
        <circle id="Ellipse_2" data-name="Ellipse 2" cx="11.115" cy="11.115" r="11.115" transform="translate(70.476 12.092)" fill="#4807e6"/>
        <circle id="Ellipse_3" data-name="Ellipse 3" cx="11.115" cy="11.115" r="11.115" transform="translate(82.567 41.284)" fill="#4807e6"/>
        <circle id="Ellipse_4" data-name="Ellipse 4" cx="11.115" cy="11.115" r="11.115" transform="translate(70.476 70.476)" fill="#4807e6"/>
        <circle id="Ellipse_5" data-name="Ellipse 5" cx="11.115" cy="11.115" r="11.115" transform="translate(41.284 82.567)" fill="#4807e6"/>
        <circle id="Ellipse_6" data-name="Ellipse 6" cx="11.115" cy="11.115" r="11.115" transform="translate(12.092 70.476)" fill="#4807e6"/>
        <circle id="Ellipse_7" data-name="Ellipse 7" cx="11.115" cy="11.115" r="11.115" transform="translate(0 41.284)" fill="#4807e6"/>
        <circle id="Ellipse_8" data-name="Ellipse 8" cx="11.115" cy="11.115" r="11.115" transform="translate(12.092 12.092)" fill="#4807e6"/>
      </g>
    </g>
    <path id="Path_3315" data-name="Path 3315" d="M22,0A22,22,0,1,1,0,22,22,22,0,0,1,22,0Z" transform="translate(937 98.314)" fill="#4807e6"/>
    <g id="Search_results_for_Student_-_Flaticon-2_2_" data-name="Search results for Student - Flaticon-2 (2)" transform="translate(909.05 105.41)">
      <g id="Group_10215" data-name="Group 10215" transform="translate(37.452)">
        <g id="Layer_2_9_">
          <g id="Group_10214" data-name="Group 10214">
            <path id="Path_3261" data-name="Path 3261" d="M86.44,5.157c.288.162,2.225,1.1,3.16,1.548,0,.363.012.991.024,1,.1.9.28,1.9.331,2.181-.085.047-.522.333-.522,1.222v.015c0,.023,0,.047,0,.071.188,2.472,1.171,1.407,1.374,2.489a5.38,5.38,0,0,0,2.924,3.553,4.131,4.131,0,0,0,3.568,0,5.38,5.38,0,0,0,2.924-3.553c.2-1.083,1.186-.017,1.374-2.489,0-.024,0-.048,0-.071V11.11c0-.889-.437-1.175-.522-1.222.051-.282.228-1.281.331-2.181.012-.011.02-.639.024-1,.514-.248,1.33-.641,2.008-.973v2.39a.615.615,0,0,0-.062,1.041s-.273,1.533-.361,1.984,1.555.36,1.481,0-.361-1.984-.361-1.984a.615.615,0,0,0-.062-1.041V5.42c.253-.125.441-.221.516-.263.2-.115.313-.261.29-.413.028-.159-.087-.329-.4-.48-2.2-1.076-7.805-3.82-8.36-4.084a1.133,1.133,0,0,0-1.22,0c-.554.264-6.161,3.008-8.36,4.084-.308.151-.423.322-.4.48C86.127,4.9,86.237,5.042,86.44,5.157Z" transform="translate(-83.017)" fill="#fff"/>
            <path id="Path_3262" data-name="Path 3262" d="M57.413,296.3a27.572,27.572,0,0,1-3.144-1.614.54.54,0,0,0-.761.237c-.853,1.428-2.434,5.58-3.538,5.657l-.021,0-.021,0c-1.1-.077-2.685-4.229-3.538-5.657a.54.54,0,0,0-.761-.237,27.568,27.568,0,0,1-3.144,1.614c-3.473,1.252-5.034,2.529-5.034,3.4v5.79h25V299.7C62.448,298.834,60.886,297.557,57.413,296.3Z" transform="translate(-37.452 -275.686)" fill="#fff"/>
          </g>
        </g>
      </g>
    </g>
  </g>
</svg>
