<svg xmlns="http://www.w3.org/2000/svg" width="59" height="57" viewBox="0 0 59 57">
  <g id="Group_10213" data-name="Group 10213" transform="translate(-632 -465)">
    <ellipse id="Ellipse_18" data-name="Ellipse 18" cx="29.5" cy="28.5" rx="29.5" ry="28.5" transform="translate(632 465)" fill="transparent"/>
    <g id="Search_results_for_Student_-_Flaticon-2_2_" data-name="Search results for Student - Flaticon-2 (2)" transform="translate(610.548 477)">
      <g id="Group_10215" data-name="Group 10215" transform="translate(37.452)">
        <g id="Layer_2_9_">
          <g id="Group_10214" data-name="Group 10214">
            <path id="Path_3261" data-name="Path 3261" d="M86.462,5.536c.309.174,2.388,1.178,3.393,1.662,0,.39.013,1.064.026,1.076.111.965.3,2.038.356,2.341-.091.051-.561.358-.561,1.312v.016c0,.025,0,.05,0,.076.2,2.654,1.257,1.51,1.475,2.672A5.775,5.775,0,0,0,94.289,18.5a4.435,4.435,0,0,0,3.83,0,5.775,5.775,0,0,0,3.138-3.814c.218-1.162,1.273-.019,1.475-2.672,0-.026,0-.051,0-.076v-.016c0-.955-.47-1.262-.561-1.312.055-.3.245-1.375.356-2.341.013-.011.022-.686.026-1.076.552-.266,1.427-.688,2.156-1.044V8.719a.66.66,0,0,0-.067,1.118s-.293,1.646-.387,2.129,1.669.387,1.59,0-.387-2.129-.387-2.129a.66.66,0,0,0-.066-1.118v-2.9c.272-.135.474-.237.554-.283.219-.123.336-.28.311-.444.03-.17-.093-.354-.424-.516-2.361-1.156-8.379-4.1-8.974-4.385a1.216,1.216,0,0,0-1.31,0c-.6.284-6.613,3.229-8.974,4.385-.331.162-.454.345-.424.516C86.125,5.255,86.243,5.413,86.462,5.536Z" transform="translate(-82.787)" fill="#4807e6"/>
            <path id="Path_3262" data-name="Path 3262" d="M58.881,296.429a29.6,29.6,0,0,1-3.375-1.733.58.58,0,0,0-.817.255c-.916,1.533-2.613,5.991-3.8,6.073l-.022,0-.022,0c-1.185-.083-2.882-4.54-3.8-6.073a.58.58,0,0,0-.817-.255,29.6,29.6,0,0,1-3.375,1.733c-3.728,1.344-5.4,2.715-5.4,3.65v6.216H64.285v-6.216C64.285,299.144,62.609,297.773,58.881,296.429Z" transform="translate(-37.452 -274.294)" fill="#4807e6"/>
          </g>
        </g>
      </g>
    </g>
  </g>
</svg>
